<svg width="18" height="18" viewBox="0 0 18 18" fill="none" xmlns="http://www.w3.org/2000/svg">
<path d="M8.99996 0.666687C4.41663 0.666687 0.666626 4.41669 0.666626 9.00002C0.666626 13.5834 4.41663 17.3334 8.99996 17.3334C13.5833 17.3334 17.3333 13.5834 17.3333 9.00002C17.3333 4.41669 13.5833 0.666687 8.99996 0.666687ZM12.0833 9.58335L9.58329 12.0834C9.24996 12.4167 8.74996 12.4167 8.41663 12.0834C8.08329 11.75 8.08329 11.25 8.41663 10.9167L9.49996 9.83335H6.49996C5.99996 9.83335 5.66663 9.50002 5.66663 9.00002C5.66663 8.50002 5.99996 8.16669 6.49996 8.16669H9.49996L8.41663 7.08335C8.08329 6.75002 8.08329 6.25002 8.41663 5.91669C8.74996 5.58335 9.24996 5.58335 9.58329 5.91669L12.0833 8.41669C12.4166 8.75002 12.4166 9.25002 12.0833 9.58335Z" fill="#ED017F"/>
</svg>
