<svg id="Capa_1" data-name="Capa 1" xmlns="http://www.w3.org/2000/svg" viewBox="0 0 452.8 452.8"><defs><style>.cls-1{fill:#fff;}</style></defs><path class="cls-1" d="M238.51,123.68a7.68,7.68,0,0,1-7.68-7.68A48.43,48.43,0,1,0,134,116a7.68,7.68,0,1,1-15.36,0,63.79,63.79,0,1,1,127.57,0A7.67,7.67,0,0,1,238.51,123.68Z"/><path class="cls-1" d="M266.75,149.9a7.84,7.84,0,0,1-2.28-.35,7.68,7.68,0,0,1-5.06-9.61,80.63,80.63,0,1,0-154,0,7.67,7.67,0,1,1-14.66,4.55,96,96,0,1,1,183.36,0A7.7,7.7,0,0,1,266.75,149.9Z"/><path class="cls-1" d="M196.1,169.28A18.53,18.53,0,0,0,182.56,164q-8.2,0-13.33,5.24-4.42,4.51-5,12.85a18.79,18.79,0,0,1,18.69-16.88c7.28,0,14.31,4.27,17.21,10.29A16.49,16.49,0,0,0,196.1,169.28Zm0,0A18.53,18.53,0,0,0,182.56,164q-8.2,0-13.33,5.24-4.42,4.51-5,12.85a18.79,18.79,0,0,1,18.69-16.88c7.28,0,14.31,4.27,17.21,10.29A16.49,16.49,0,0,0,196.1,169.28Zm0,0A18.53,18.53,0,0,0,182.56,164q-8.2,0-13.33,5.24-4.42,4.51-5,12.85a18.79,18.79,0,0,1,18.69-16.88c7.28,0,14.31,4.27,17.21,10.29A16.49,16.49,0,0,0,196.1,169.28Zm0,0A18.53,18.53,0,0,0,182.56,164q-8.2,0-13.33,5.24-4.42,4.51-5,12.85a18.79,18.79,0,0,1,18.69-16.88c7.28,0,14.31,4.27,17.21,10.29A16.49,16.49,0,0,0,196.1,169.28ZM347,302.42a34.18,34.18,0,0,0-34.15-34.13,36.19,36.19,0,0,0-12.68,2.36A34.15,34.15,0,0,0,269.79,252a36.36,36.36,0,0,0-13.32,2.51,34.2,34.2,0,0,0-39.65-16.75c0-3.18,0-6.45,0-9.73l0-31.82c0-8.67,0-12.63,0-14.65h0c0-17.14-15.56-31.62-34-31.62A34.18,34.18,0,0,0,148.74,184v104.1a35,35,0,0,0-24.14,32.38c-.73,25.92,1.4,58.71,24.49,82.47,19.5,20.05,50,29.8,93.28,29.8,38.92,0,67.7-11.45,85.55-34,12.54-15.85,19.17-37.22,19.17-61.79Zm-104.66,115C150.76,417.43,138.54,371,140,321A19.83,19.83,0,0,1,158.1,301.8V184.86c0-8.49,2.3-15.14,6.84-19.78s10.5-7,17.62-7a24.39,24.39,0,0,1,17.74,7c4.74,4.64,7.14,11,7.14,18.84V272a2.94,2.94,0,0,0,.12-.84v-.92a18.79,18.79,0,0,1,37.57.31l0,13.61a3,3,0,0,0,6,0v-.78c0-9.45,9.18-16,18.62-16a18.75,18.75,0,0,1,18.75,18.79l0,13.77a2.94,2.94,0,1,0,5.87,0l0-1.05c0-8.59,9.3-15.18,18.45-15.18a18.8,18.8,0,0,1,18.79,18.79l.06,34.53C331.73,369.08,319.24,417.43,242.37,417.43ZM182.56,164q-8.2,0-13.33,5.24-4.42,4.51-5,12.85a18.79,18.79,0,0,1,18.69-16.88c7.28,0,14.31,4.27,17.21,10.29a16.49,16.49,0,0,0-4-6.26A18.53,18.53,0,0,0,182.56,164Zm13.54,5.24A18.53,18.53,0,0,0,182.56,164q-8.2,0-13.33,5.24-4.42,4.51-5,12.85a18.79,18.79,0,0,1,18.69-16.88c7.28,0,14.31,4.27,17.21,10.29A16.49,16.49,0,0,0,196.1,169.28Zm0,0A18.53,18.53,0,0,0,182.56,164q-8.2,0-13.33,5.24-4.42,4.51-5,12.85a18.79,18.79,0,0,1,18.69-16.88c7.28,0,14.31,4.27,17.21,10.29A16.49,16.49,0,0,0,196.1,169.28Z"/><path class="cls-1" d="M199.68,92.14a25.91,25.91,0,0,0-17-6.15,25.19,25.19,0,0,0-17.46,6.79,22.24,22.24,0,0,0-7.51,17.28q0,11.58,7.33,17.91a26,26,0,0,0,17.64,6.34,25,25,0,0,0,17.19-6.43q7.23-6.42,7.24-17.82Q207.1,98.3,199.68,92.14Z"/><path class="cls-1" d="M200.11,175.2v0a15.9,15.9,0,0,0-4-6.06A18.86,18.86,0,0,0,182.56,164q-8.2,0-13.33,5.08-4.42,4.37-5,12.44a2.28,2.28,0,0,0,0,.26c-.05.77-.08,1.57-.08,2.39v96.65c0,6.6-.45,13.76,3,17.31s10,3.23,15.49,3.23,11.95.17,15.5-3.3,3.38-10.48,3.38-17.24V183.22A22.48,22.48,0,0,0,200.11,175.2Z"/></svg>