<svg width="27" height="27" viewBox="0 0 27 27" fill="none" xmlns="http://www.w3.org/2000/svg">
<path d="M24.1247 11.375H7.99591L15.0084 4.38375C15.4086 3.9836 15.6334 3.44089 15.6334 2.875C15.6334 2.30911 15.4086 1.76639 15.0084 1.36625C14.6083 0.966102 14.0655 0.741302 13.4997 0.741302C12.9338 0.741302 12.3911 0.966102 11.9909 1.36625L1.36591 11.9912C1.17245 12.1933 1.0208 12.4317 0.919658 12.6925C0.707119 13.2099 0.707119 13.7901 0.919658 14.3075C1.0208 14.5683 1.17245 14.8067 1.36591 15.0087L11.9909 25.6337C12.1885 25.8329 12.4235 25.991 12.6824 26.0989C12.9414 26.2068 13.2191 26.2623 13.4997 26.2623C13.7802 26.2623 14.0579 26.2068 14.3169 26.0989C14.5758 25.991 14.8109 25.8329 15.0084 25.6337C15.2076 25.4362 15.3657 25.2012 15.4736 24.9422C15.5814 24.6833 15.637 24.4055 15.637 24.125C15.637 23.8445 15.5814 23.5667 15.4736 23.3078C15.3657 23.0488 15.2076 22.8138 15.0084 22.6162L7.99591 15.625H24.1247C24.6882 15.625 25.2287 15.4011 25.6273 15.0026C26.0258 14.6041 26.2497 14.0636 26.2497 13.5C26.2497 12.9364 26.0258 12.3959 25.6273 11.9974C25.2287 11.5989 24.6882 11.375 24.1247 11.375Z" fill="#ED017F"/>
</svg>
