<svg width="26" height="27" viewBox="0 0 26 27" fill="none" xmlns="http://www.w3.org/2000/svg">
<path d="M25.33 12.6925C25.2289 12.4317 25.0772 12.1933 24.8837 11.9912L14.2588 1.36625C14.0606 1.16812 13.8254 1.01095 13.5665 0.903721C13.3077 0.796493 13.0302 0.741302 12.75 0.741302C12.1841 0.741302 11.6414 0.966102 11.2412 1.36625C11.0431 1.56438 10.886 1.7996 10.7787 2.05847C10.6715 2.31734 10.6163 2.5948 10.6163 2.875C10.6163 3.44089 10.8411 3.9836 11.2412 4.38375L18.2538 11.375H2.125C1.56141 11.375 1.02091 11.5989 0.622398 11.9974C0.223884 12.3959 0 12.9364 0 13.5C0 14.0636 0.223884 14.6041 0.622398 15.0026C1.02091 15.4011 1.56141 15.625 2.125 15.625H18.2538L11.2412 22.6162C11.0421 22.8138 10.884 23.0488 10.7761 23.3078C10.6682 23.5667 10.6127 23.8445 10.6127 24.125C10.6127 24.4055 10.6682 24.6833 10.7761 24.9422C10.884 25.2012 11.0421 25.4362 11.2412 25.6337C11.4388 25.8329 11.6738 25.991 11.9328 26.0989C12.1917 26.2068 12.4695 26.2623 12.75 26.2623C13.0305 26.2623 13.3083 26.2068 13.5672 26.0989C13.8262 25.991 14.0612 25.8329 14.2588 25.6337L24.8837 15.0087C25.0772 14.8067 25.2289 14.5683 25.33 14.3075C25.5425 13.7901 25.5425 13.2099 25.33 12.6925Z" fill="#ED017F"/>
</svg>
