<svg width="14" height="18" viewBox="0 0 14 18" fill="none" xmlns="http://www.w3.org/2000/svg">
<path d="M4.50065 7.33329H5.33398C5.555 7.33329 5.76696 7.2455 5.92324 7.08922C6.07952 6.93293 6.16732 6.72097 6.16732 6.49996C6.16732 6.27895 6.07952 6.06698 5.92324 5.9107C5.76696 5.75442 5.555 5.66663 5.33398 5.66663H4.50065C4.27964 5.66663 4.06768 5.75442 3.9114 5.9107C3.75511 6.06698 3.66732 6.27895 3.66732 6.49996C3.66732 6.72097 3.75511 6.93293 3.9114 7.08922C4.06768 7.2455 4.27964 7.33329 4.50065 7.33329ZM4.50065 8.99996C4.27964 8.99996 4.06768 9.08776 3.9114 9.24404C3.75511 9.40032 3.66732 9.61228 3.66732 9.83329C3.66732 10.0543 3.75511 10.2663 3.9114 10.4225C4.06768 10.5788 4.27964 10.6666 4.50065 10.6666H9.50065C9.72166 10.6666 9.93363 10.5788 10.0899 10.4225C10.2462 10.2663 10.334 10.0543 10.334 9.83329C10.334 9.61228 10.2462 9.40032 10.0899 9.24404C9.93363 9.08776 9.72166 8.99996 9.50065 8.99996H4.50065ZM13.6673 6.44996C13.6586 6.3734 13.6419 6.29799 13.6173 6.22496V6.14996C13.5772 6.06428 13.5238 5.98551 13.459 5.91663L8.45898 0.916626C8.3901 0.851806 8.31133 0.79836 8.22565 0.758293C8.20078 0.754759 8.17553 0.754759 8.15065 0.758293C8.066 0.709744 7.9725 0.678579 7.87565 0.666626H2.83398C2.17094 0.666626 1.53506 0.930018 1.06622 1.39886C0.597377 1.8677 0.333984 2.50358 0.333984 3.16663V14.8333C0.333984 15.4963 0.597377 16.1322 1.06622 16.6011C1.53506 17.0699 2.17094 17.3333 2.83398 17.3333H11.1673C11.8304 17.3333 12.4662 17.0699 12.9351 16.6011C13.4039 16.1322 13.6673 15.4963 13.6673 14.8333V6.49996C13.6673 6.49996 13.6673 6.49996 13.6673 6.44996ZM8.66732 3.50829L10.8257 5.66663H9.50065C9.27964 5.66663 9.06767 5.57883 8.9114 5.42255C8.75511 5.26627 8.66732 5.05431 8.66732 4.83329V3.50829ZM12.0007 14.8333C12.0007 15.0543 11.9129 15.2663 11.7566 15.4225C11.6003 15.5788 11.3883 15.6666 11.1673 15.6666H2.83398C2.61297 15.6666 2.40101 15.5788 2.24473 15.4225C2.08845 15.2663 2.00065 15.0543 2.00065 14.8333V3.16663C2.00065 2.94561 2.08845 2.73365 2.24473 2.57737C2.40101 2.42109 2.61297 2.33329 2.83398 2.33329H7.00065V4.83329C7.00065 5.49633 7.26404 6.13222 7.73288 6.60106C8.20172 7.0699 8.83761 7.33329 9.50065 7.33329H12.0007V14.8333ZM9.50065 12.3333H4.50065C4.27964 12.3333 4.06768 12.4211 3.9114 12.5774C3.75511 12.7337 3.66732 12.9456 3.66732 13.1666C3.66732 13.3876 3.75511 13.5996 3.9114 13.7559C4.06768 13.9122 4.27964 14 4.50065 14H9.50065C9.72166 14 9.93363 13.9122 10.0899 13.7559C10.2462 13.5996 10.334 13.3876 10.334 13.1666C10.334 12.9456 10.2462 12.7337 10.0899 12.5774C9.93363 12.4211 9.72166 12.3333 9.50065 12.3333Z" fill="#343434"/>
</svg>
