<svg width="63" height="62" viewBox="0 0 63 62" fill="none" xmlns="http://www.w3.org/2000/svg">
<path d="M58.8529 31C58.8529 30.6677 58.8469 30.3367 58.8352 30.0073C58.3126 15.3605 46.2742 3.64706 31.4999 3.64706C16.7256 3.64706 4.68719 15.3605 4.16471 30.0073C4.15296 30.3367 4.14697 30.6677 4.14697 31C4.14697 46.1066 18.1976 57.3603 31.4999 57.3603C45.0433 57.3603 58.8529 46.1066 58.8529 31Z" fill="#12BFF5"/>
<path d="M31.4999 56.3674C16.7258 56.3674 4.68954 44.6536 4.16685 30.0071C4.15499 30.3368 4.14697 30.6673 4.14697 30.9998C4.14697 46.1064 16.3933 58.3527 31.4999 58.3527C46.6065 58.3527 58.8529 46.1064 58.8529 30.9998C58.8529 30.6673 58.8448 30.3368 58.8331 30.0072C58.3103 44.6537 46.274 56.3674 31.4999 56.3674Z" fill="#12BFF5"/>
<path d="M54.3032 30.0073C53.7835 17.8623 43.773 8.17551 31.5 8.17551C19.2269 8.17551 9.2164 17.8623 8.6967 30.0073C8.68259 30.3365 8.69659 52.3727 31.5 52.3727C54.3033 52.3727 54.3173 30.3365 54.3032 30.0073Z" fill="#E4EEF9"/>
<path d="M31.5001 51.839C19.2271 51.839 9.21822 42.152 8.6983 30.0071C8.68419 30.3364 8.67554 30.667 8.67554 30.9997C8.67554 43.6053 18.8944 53.8242 31.5001 53.8242C44.1057 53.8242 54.3246 43.6054 54.3246 30.9998C54.3246 30.6671 54.3159 30.3364 54.3019 30.0072C53.7819 42.1521 43.773 51.839 31.5001 51.839Z" fill="#D5E0F2"/>
<path d="M39.7909 22.9918C39.1403 22.3501 38.0928 22.3573 37.4513 23.0078L33.5691 26.9437L33.9592 28.8175L35.7726 29.4216L39.8071 25.3314C40.4486 24.6809 40.4414 23.6334 39.7909 22.9918Z" fill="#405B6C"/>
<path d="M29.1581 27.0944L20.3537 19.2484C19.6715 18.6404 18.6258 18.7007 18.0179 19.3829C17.41 20.065 17.4702 21.1108 18.1524 21.7187L27.1303 29.7192L29.0011 29.0952L29.1581 27.0944Z" fill="#405B6C"/>
<path d="M43.2141 41.6674C43.0263 41.6674 42.8376 41.6038 42.6825 41.4736L32.2036 32.6717C31.8539 32.3779 31.8084 31.856 32.1022 31.5063C32.396 31.1564 32.9178 31.111 33.2677 31.4049L43.7466 40.2069C44.0963 40.5007 44.1418 41.0226 43.8479 41.3723C43.6844 41.5671 43.45 41.6674 43.2141 41.6674Z" fill="#86DCFF"/>
<path d="M27.1301 29.7194L28.6751 31.0962L30.6593 30.422L30.5517 28.3364L29.1581 27.0945C28.1885 27.6772 27.4545 28.6107 27.1301 29.7194Z" fill="#2D4456"/>
<path d="M33.569 26.9441L32.2554 28.2758V30.8899H34.3246L35.7726 29.422C35.3747 28.3454 34.5811 27.4614 33.569 26.9441Z" fill="#2D4456"/>
<path d="M34.1479 30.0072C33.746 28.9356 32.712 28.1728 31.4999 28.1728C30.2879 28.1728 29.2539 28.9356 28.8519 30.0072C28.7361 30.3161 28.8442 32.8346 31.4999 32.8346C34.1556 32.8346 34.2637 30.3161 34.1479 30.0072Z" fill="#12BFF5"/>
<path d="M31.4999 31.8418C30.2878 31.8418 29.2543 31.0789 28.8523 30.0072C28.7364 30.3161 28.6726 30.6504 28.6726 30.9998C28.6726 32.5613 29.9384 33.827 31.4998 33.827C33.0613 33.827 34.327 32.5612 34.327 30.9998C34.327 30.6504 34.2632 30.3161 34.1474 30.0072C33.7455 31.0788 32.712 31.8418 31.4999 31.8418Z" fill="#12BFF5"/>
<path d="M32.3288 13.6452V11.078C32.3288 10.6203 31.9577 10.2492 31.5 10.2492C31.0422 10.2492 30.6711 10.6203 30.6711 11.078V13.6452C30.6711 14.1029 31.0421 14.474 31.5 14.474C31.9578 14.474 32.3288 14.1029 32.3288 13.6452Z" fill="#405B6C"/>
<path d="M30.6711 48.3552V50.9224C30.6711 51.3802 31.0421 51.7513 31.5 51.7513C31.9578 51.7513 32.3288 51.3802 32.3288 50.9224V48.3552C32.3288 47.8975 31.9577 47.5264 31.5 47.5264C31.0422 47.5264 30.6711 47.8975 30.6711 48.3552Z" fill="#405B6C"/>
<path d="M51.4222 31.8287C51.88 31.8287 52.251 31.4576 52.251 30.9999C52.251 30.5421 51.8799 30.1711 51.4222 30.1711H48.8549C48.3972 30.1711 48.0261 30.5421 48.0261 30.9999C48.0261 31.4576 48.3972 31.8287 48.8549 31.8287H51.4222Z" fill="#405B6C"/>
<path d="M11.5778 30.1711C11.12 30.1711 10.749 30.5421 10.749 30.9999C10.749 31.4576 11.12 31.8287 11.5778 31.8287H14.1451C14.6029 31.8287 14.9739 31.4576 14.9739 30.9999C14.9739 30.5421 14.6028 30.1711 14.1451 30.1711H11.5778Z" fill="#405B6C"/>
</svg>
