<svg width="24" height="25" viewBox="0 0 24 25" fill="none" xmlns="http://www.w3.org/2000/svg">
<g clip-path="url(#clip0_4108_1194)">
<path d="M4.69165 10.0864V22.0435C4.69165 23.1383 5.58234 24.029 6.67714 24.029H17.2664C18.3613 24.029 19.2519 23.1383 19.2519 22.0435V10.0864C19.2519 8.48835 18.1132 7.15123 16.6046 6.84374V5.40947H17.2664C17.632 5.40947 17.9283 5.11314 17.9283 4.74763V3.42397C17.9283 2.32917 17.0376 1.43848 15.9428 1.43848H8.00081C6.90601 1.43848 6.01531 2.32917 6.01531 3.42397V4.74763C6.01531 5.11314 6.31164 5.40947 6.67714 5.40947H7.33898V6.84374C5.8304 7.15123 4.69165 8.48835 4.69165 10.0864ZM13.9573 20.058C13.1754 20.058 9.27713 20.058 8.66264 20.058V18.7343H13.9573V20.058ZM9.9863 21.3817H15.281V22.7053H9.9863V21.3817ZM7.33898 3.42397C7.33898 3.05904 7.63587 2.76214 8.00081 2.76214H15.9428C16.3077 2.76214 16.6046 3.05904 16.6046 3.42397V4.0858H7.33898V3.42397ZM15.281 5.40947V7.43908C15.281 7.80459 15.5773 8.10091 15.9428 8.10091C17.0376 8.10091 17.9283 8.99161 17.9283 10.0864V22.0435C17.9283 22.4084 17.6314 22.7053 17.2664 22.7053H16.6046V20.7198C16.6046 20.3543 16.3083 20.058 15.9428 20.058H15.281V18.0725C15.281 17.707 14.9846 17.4107 14.6191 17.4107H8.00081C7.6353 17.4107 7.33898 17.707 7.33898 18.0725V20.7198C7.33898 21.0853 7.6353 21.3817 8.00081 21.3817H8.66264V22.7053H6.67714C6.31221 22.7053 6.01531 22.4084 6.01531 22.0435V10.0864C6.01531 8.99161 6.90601 8.10091 8.00081 8.10091C8.36632 8.10091 8.66264 7.80459 8.66264 7.43908V5.40947H15.281Z" fill="#5D5D5D"/>
<path d="M12.7152 12.8888L12.5942 12.1227C12.7897 12.0787 13.006 12.0567 13.243 12.0567C13.5558 12.0567 13.7977 12.1288 13.9688 12.273C14.1423 12.4147 14.229 12.62 14.229 12.8888C14.229 13.2187 14.1337 13.5046 13.9431 13.7465C13.7525 13.986 13.502 14.1827 13.1917 14.3366C12.8814 14.4881 12.5307 14.5639 12.1397 14.5639C11.8514 14.5639 11.6205 14.5125 11.447 14.4099C11.2735 14.3048 11.1525 14.1729 11.0841 14.0141C11.0181 13.8528 10.9851 13.6182 10.9851 13.3103V11.6206H10.3547V10.7922H10.9851V10.345C10.9851 10.174 10.9717 10.0542 10.9448 9.98579C10.9179 9.91493 10.8764 9.86239 10.8202 9.82818C10.764 9.79153 10.6797 9.7732 10.5673 9.7732C10.4402 9.7732 10.2973 9.80252 10.1384 9.86117L9.85254 9.14642C10.026 9.07556 10.1898 9.02424 10.3437 8.99247C10.5001 8.96071 10.6895 8.94482 10.9118 8.94482C11.1684 8.94482 11.3737 8.9937 11.5276 9.09144C11.684 9.18674 11.7976 9.32725 11.8685 9.51296C11.9394 9.69867 11.9748 9.9638 11.9748 10.3083V10.7922H14.4379V11.6206H11.9748V13.3323C11.9748 13.5082 12.0041 13.6219 12.0628 13.6732C12.1214 13.722 12.2033 13.7465 12.3083 13.7465C12.5478 13.7465 12.7641 13.672 12.9571 13.5229C13.1526 13.3738 13.2504 13.2236 13.2504 13.072C13.2504 13.0061 13.2247 12.956 13.1734 12.9218C13.1221 12.8876 13.05 12.8705 12.9571 12.8705C12.8667 12.8705 12.7861 12.8766 12.7152 12.8888Z" fill="#5D5D5D"/>
</g>
<defs>
<clipPath id="clip0_4108_1194">
<rect width="24" height="24" fill="white" transform="translate(0 0.5)"/>
</clipPath>
</defs>
</svg>
