<svg width="25" height="30" viewBox="0 0 25 30" fill="none" xmlns="http://www.w3.org/2000/svg">
<path d="M8.12516 12.0834H9.5835C9.97027 12.0834 10.3412 11.9298 10.6147 11.6563C10.8882 11.3828 11.0418 11.0119 11.0418 10.6251C11.0418 10.2383 10.8882 9.86738 10.6147 9.59389C10.3412 9.32039 9.97027 9.16675 9.5835 9.16675H8.12516C7.73839 9.16675 7.36746 9.32039 7.09397 9.59389C6.82047 9.86738 6.66683 10.2383 6.66683 10.6251C6.66683 11.0119 6.82047 11.3828 7.09397 11.6563C7.36746 11.9298 7.73839 12.0834 8.12516 12.0834ZM8.12516 15.0001C7.73839 15.0001 7.36746 15.1537 7.09397 15.4272C6.82047 15.7007 6.66683 16.0716 6.66683 16.4584C6.66683 16.8452 6.82047 17.2161 7.09397 17.4896C7.36746 17.7631 7.73839 17.9167 8.12516 17.9167H16.8752C17.2619 17.9167 17.6329 17.7631 17.9064 17.4896C18.1798 17.2161 18.3335 16.8452 18.3335 16.4584C18.3335 16.0716 18.1798 15.7007 17.9064 15.4272C17.6329 15.1537 17.2619 15.0001 16.8752 15.0001H8.12516ZM24.1668 10.5376C24.1516 10.4036 24.1223 10.2716 24.0793 10.1438V10.0126C24.0092 9.86264 23.9157 9.7248 23.8022 9.60425L15.0522 0.854248C14.9317 0.740813 14.7939 0.647283 14.6439 0.577165C14.6004 0.570982 14.5562 0.570982 14.5127 0.577165C14.3645 0.492204 14.2009 0.437667 14.0314 0.416748H5.2085C4.04817 0.416748 2.93538 0.877684 2.1149 1.69816C1.29443 2.51863 0.833496 3.63143 0.833496 4.79175V25.2084C0.833496 26.3687 1.29443 27.4815 2.1149 28.302C2.93538 29.1225 4.04817 29.5834 5.2085 29.5834H19.7918C20.9522 29.5834 22.0649 29.1225 22.8854 28.302C23.7059 27.4815 24.1668 26.3687 24.1668 25.2084V10.6251C24.1668 10.6251 24.1668 10.6251 24.1668 10.5376ZM15.4168 5.38967L19.1939 9.16675H16.8752C16.4884 9.16675 16.1175 9.0131 15.844 8.73961C15.5705 8.46612 15.4168 8.09519 15.4168 7.70842V5.38967ZM21.2502 25.2084C21.2502 25.5952 21.0965 25.9661 20.823 26.2396C20.5495 26.5131 20.1786 26.6668 19.7918 26.6668H5.2085C4.82172 26.6668 4.45079 26.5131 4.1773 26.2396C3.90381 25.9661 3.75016 25.5952 3.75016 25.2084V4.79175C3.75016 4.40497 3.90381 4.03404 4.1773 3.76055C4.45079 3.48706 4.82172 3.33342 5.2085 3.33342H12.5002V7.70842C12.5002 8.86874 12.9611 9.98154 13.7816 10.802C14.602 11.6225 15.7148 12.0834 16.8752 12.0834H21.2502V25.2084ZM16.8752 20.8334H8.12516C7.73839 20.8334 7.36746 20.9871 7.09397 21.2606C6.82047 21.534 6.66683 21.905 6.66683 22.2917C6.66683 22.6785 6.82047 23.0495 7.09397 23.3229C7.36746 23.5964 7.73839 23.7501 8.12516 23.7501H16.8752C17.2619 23.7501 17.6329 23.5964 17.9064 23.3229C18.1798 23.0495 18.3335 22.6785 18.3335 22.2917C18.3335 21.905 18.1798 21.534 17.9064 21.2606C17.6329 20.9871 17.2619 20.8334 16.8752 20.8334Z" fill="#2BBB7F"/>
</svg>
