<svg width="14" height="18" viewBox="0 0 14 18" fill="none" xmlns="http://www.w3.org/2000/svg">
<path d="M4.49967 7.33317H5.33301C5.55402 7.33317 5.76598 7.24537 5.92226 7.08909C6.07854 6.93281 6.16634 6.72085 6.16634 6.49984C6.16634 6.27882 6.07854 6.06686 5.92226 5.91058C5.76598 5.7543 5.55402 5.6665 5.33301 5.6665H4.49967C4.27866 5.6665 4.0667 5.7543 3.91042 5.91058C3.75414 6.06686 3.66634 6.27882 3.66634 6.49984C3.66634 6.72085 3.75414 6.93281 3.91042 7.08909C4.0667 7.24537 4.27866 7.33317 4.49967 7.33317ZM4.49967 8.99984C4.27866 8.99984 4.0667 9.08764 3.91042 9.24392C3.75414 9.4002 3.66634 9.61216 3.66634 9.83317C3.66634 10.0542 3.75414 10.2661 3.91042 10.4224C4.0667 10.5787 4.27866 10.6665 4.49967 10.6665H9.49967C9.72069 10.6665 9.93265 10.5787 10.0889 10.4224C10.2452 10.2661 10.333 10.0542 10.333 9.83317C10.333 9.61216 10.2452 9.4002 10.0889 9.24392C9.93265 9.08764 9.72069 8.99984 9.49967 8.99984H4.49967ZM13.6663 6.44984C13.6577 6.37328 13.6409 6.29786 13.6163 6.22484V6.14984C13.5763 6.06415 13.5228 5.98539 13.458 5.9165L8.45801 0.916504C8.38912 0.851684 8.31036 0.798238 8.22467 0.75817C8.1998 0.754637 8.17455 0.754637 8.14967 0.75817C8.06502 0.709622 7.97153 0.678457 7.87467 0.666504H2.83301C2.16997 0.666504 1.53408 0.929896 1.06524 1.39874C0.5964 1.86758 0.333008 2.50346 0.333008 3.1665V14.8332C0.333008 15.4962 0.5964 16.1321 1.06524 16.6009C1.53408 17.0698 2.16997 17.3332 2.83301 17.3332H11.1663C11.8294 17.3332 12.4653 17.0698 12.9341 16.6009C13.4029 16.1321 13.6663 15.4962 13.6663 14.8332V6.49984C13.6663 6.49984 13.6663 6.49984 13.6663 6.44984ZM8.66634 3.50817L10.8247 5.6665H9.49967C9.27866 5.6665 9.0667 5.57871 8.91042 5.42243C8.75414 5.26615 8.66634 5.05418 8.66634 4.83317V3.50817ZM11.9997 14.8332C11.9997 15.0542 11.9119 15.2661 11.7556 15.4224C11.5993 15.5787 11.3874 15.6665 11.1663 15.6665H2.83301C2.61199 15.6665 2.40003 15.5787 2.24375 15.4224C2.08747 15.2661 1.99967 15.0542 1.99967 14.8332V3.1665C1.99967 2.94549 2.08747 2.73353 2.24375 2.57725C2.40003 2.42097 2.61199 2.33317 2.83301 2.33317H6.99967V4.83317C6.99967 5.49621 7.26307 6.1321 7.73191 6.60094C8.20075 7.06978 8.83663 7.33317 9.49967 7.33317H11.9997V14.8332ZM9.49967 12.3332H4.49967C4.27866 12.3332 4.0667 12.421 3.91042 12.5772C3.75414 12.7335 3.66634 12.9455 3.66634 13.1665C3.66634 13.3875 3.75414 13.5995 3.91042 13.7558C4.0667 13.912 4.27866 13.9998 4.49967 13.9998H9.49967C9.72069 13.9998 9.93265 13.912 10.0889 13.7558C10.2452 13.5995 10.333 13.3875 10.333 13.1665C10.333 12.9455 10.2452 12.7335 10.0889 12.5772C9.93265 12.421 9.72069 12.3332 9.49967 12.3332Z" fill="#2887F5"/>
</svg>
