<svg width="63" height="62" viewBox="0 0 63 62" fill="none" xmlns="http://www.w3.org/2000/svg">
<path d="M43.9369 19.6742L29.5125 58.3529H19.8963C18.9985 58.3529 18.2936 57.6476 18.2936 56.7502V34.4834C16.21 30.1557 15.0881 25.3797 15.0881 20.5715V13.2633H31.1152L43.9369 19.6742Z" fill="#E3F7FE"/>
<path d="M43.9369 19.6742L29.5125 58.3529V13.2633H31.1152L43.9369 19.6742Z" fill="#71D9F9"/>
<path d="M22.3003 7.2373C22.3003 5.24978 23.903 3.64706 25.9223 3.64706C27.9098 3.64706 29.5125 5.24978 29.5125 7.2373C29.5125 5.24978 31.1152 3.64706 33.1028 3.64706C35.122 3.64706 36.7782 5.24978 36.7782 7.2373C36.7782 5.24978 38.3274 3.64706 40.3467 3.64706C42.3342 3.64706 43.9369 5.24978 43.9369 7.2373V16.4688L29.5125 14.4812V16.0839C29.5125 18.0715 27.9098 19.6742 25.9223 19.6742C23.903 19.6742 22.3003 18.0715 22.3003 16.0839C22.3003 18.0715 20.6976 19.6742 18.6784 19.6742C16.6908 19.6742 15.0881 18.0715 15.0881 16.0839V10.4427C15.0881 8.4552 16.6908 6.85249 18.6784 6.85249C20.6976 6.85249 22.3003 8.4552 22.3003 10.4427C22.3003 8.4552 22.3003 5.24978 22.3003 7.2373Z" fill="#12BFF5"/>
<path d="M43.9369 7.2373V16.4688L29.5125 14.4812V7.2373C29.5125 5.24978 31.1152 3.64706 33.1027 3.64706C35.1219 3.64706 36.7781 5.24978 36.7781 7.2373C36.7781 5.24978 38.3274 3.64706 40.3466 3.64706C42.3341 3.64706 43.9369 5.24978 43.9369 7.2373Z" fill="#12BFF5"/>
<path d="M47.1423 21.309C47.1423 25.8283 45.3793 30.0918 42.206 33.3294C41.5971 33.9062 41.0841 34.4513 40.7314 34.8035V56.7502C40.7314 57.648 40.0265 58.3529 39.1287 58.3529H29.5125V30.8932C29.5125 24.7069 34.5451 19.6742 40.7314 19.6742H34.3206C31.6598 19.6742 29.5125 17.5268 29.5125 14.866C29.5125 13.9683 30.2174 13.2633 31.1152 13.2633H39.1287C43.999 13.4816 47.1423 17.0931 47.1423 21.309Z" fill="#E3F7FE"/>
</svg>
