<svg width="63" height="62" viewBox="0 0 63 62" fill="none" xmlns="http://www.w3.org/2000/svg">
<path d="M46.9127 38.5236C48.1262 39.737 48.1262 41.6977 46.9127 42.9112C45.6992 44.1247 43.7074 44.1247 42.4939 42.9112L40.3157 40.7018C41.5292 41.9153 41.5292 43.9071 40.3157 45.1202C39.1022 46.3337 37.1107 46.3337 35.8972 45.1202L32.5055 41.7289L21.3653 35.6298L11.2521 21.129H5.70284C4.83131 21.129 4.14697 20.4443 4.14697 19.5731V7.12618C4.14697 6.25465 4.83131 5.57031 5.70284 5.57031H34.0302L38.1686 13.3497L46.9127 29.7175C48.1262 30.931 48.1262 32.8912 46.9127 34.1047C45.6992 35.3186 43.7074 35.3186 42.4939 34.1047L46.9127 38.5236Z" fill="#71D9F9"/>
<path d="M46.9127 38.5235C48.1262 39.737 48.1262 41.6976 46.9127 42.9111C45.6992 44.1246 43.7074 44.1246 42.4939 42.9111L40.3157 40.7017C41.5292 41.9152 41.5292 43.907 40.3157 45.1201C39.1022 46.3336 37.1107 46.3336 35.8972 45.1201L32.5055 41.7288L21.3653 35.6297L11.2521 21.129H5.70284C4.83131 21.129 4.14697 20.4442 4.14697 19.5731V13.3496H38.1686L46.9127 29.7174C48.1262 30.9309 48.1262 32.8912 46.9127 34.1047C45.6992 35.3186 43.7074 35.3186 42.4939 34.1047L46.9127 38.5235Z" fill="#71D9F9"/>
<path d="M57.2541 7.12618V19.5731C57.2541 20.4443 56.5697 21.129 55.6982 21.129H50.4913L46.5392 29.3127L37.3284 20.1019L36.7373 17.9549C35.119 17.5817 33.9679 16.617 32.91 15.6835L32.8164 15.5899L28.7091 19.6975C27.5264 20.849 25.5042 20.849 24.3215 19.6663C23.108 18.4528 23.108 16.4926 24.3215 15.2791L34.0303 5.57031H55.6982C56.5697 5.57031 57.2541 6.25465 57.2541 7.12618Z" fill="#E3F7FE"/>
<path d="M57.2541 13.3496V19.5731C57.2541 20.4442 56.5697 21.129 55.6982 21.129H50.4913L46.5392 29.3127L37.3284 20.1018L36.7373 17.9548C35.119 17.5817 33.9679 16.6169 32.91 15.6834L32.8164 15.5898L28.7091 19.6975C27.5264 20.849 25.5042 20.849 24.3215 19.6663C23.108 18.4528 23.108 16.4925 24.3215 15.279L26.2509 13.3496H57.2541Z" fill="#E3F7FE"/>
<path d="M33.3852 43.8263L28.9846 48.2269C27.7743 49.4368 25.7938 49.4368 24.584 48.2269C23.3737 47.0167 23.3737 45.0362 24.584 43.8263L25.684 38.3253L28.9846 39.4257C30.1948 38.2155 32.1749 38.2155 33.3852 39.4257C34.5954 40.6356 34.5954 42.6161 33.3852 43.8263Z" fill="#E3F7FE"/>
<path d="M33.3852 43.8263L28.9846 48.2269C27.7743 49.4368 25.7938 49.4368 24.584 48.2269L33.3852 39.4253C34.5954 40.6356 34.5954 42.6161 33.3852 43.8263Z" fill="#E3F7FE"/>
<path d="M28.9845 39.4258L24.5839 43.8264C23.3737 45.0362 21.3932 45.0362 20.1833 43.8264C18.9731 42.6161 18.9731 40.6356 20.1833 39.4258L21.2834 33.9247L24.5839 35.0252C25.7942 33.8149 27.7743 33.8149 28.9845 35.0252C30.1944 36.235 30.1944 38.2155 28.9845 39.4258Z" fill="#E3F7FE"/>
<path d="M28.9845 39.4258L24.5839 43.8264C23.3737 45.0363 21.3932 45.0363 20.1833 43.8264L28.9845 35.0248C30.1944 36.2351 30.1944 38.2156 28.9845 39.4258Z" fill="#E3F7FE"/>
<path d="M24.5836 35.0252L20.183 39.4258C18.9731 40.6357 16.9926 40.6357 15.7824 39.4258C14.5725 38.2156 14.5725 36.2351 15.7824 35.0252L16.8828 29.5242L20.1834 30.6246C21.3932 29.4144 23.3737 29.4144 24.584 30.6246C25.7938 31.8345 25.7938 33.815 24.5836 35.0252Z" fill="#E3F7FE"/>
<path d="M24.5834 35.0252L20.1828 39.4258C18.973 40.6357 16.9925 40.6357 15.7822 39.4258L24.5838 30.6242C25.7937 31.8345 25.7937 33.815 24.5834 35.0252Z" fill="#E3F7FE"/>
<path d="M20.183 30.6243L15.7824 35.0249C14.5725 36.2352 12.592 36.2352 11.3818 35.0249C10.1719 33.8151 10.1719 31.8346 11.3818 30.6243L15.7824 26.2237C16.9926 25.0135 18.9731 25.0135 20.183 26.2237C21.3932 27.434 21.3932 29.4145 20.183 30.6243Z" fill="#E3F7FE"/>
<path d="M20.183 30.6243L15.7824 35.0249C14.5726 36.2351 12.5921 36.2351 11.3818 35.0249L20.1834 26.2237C21.3933 27.4339 21.3933 29.4144 20.183 30.6243Z" fill="#E3F7FE"/>
<path d="M41.7837 15.7276C41.176 15.1198 40.1914 15.1198 39.5836 15.7276C38.0063 17.3049 35.2082 17.6886 32.8962 15.6696L37.3309 20.1043C39.0095 19.8782 40.567 19.1456 41.7837 17.9277C42.3915 17.3199 42.3915 16.3337 41.7837 15.7276Z" fill="#71D9F9"/>
</svg>
