<svg width="63" height="62" viewBox="0 0 63 62" fill="none" xmlns="http://www.w3.org/2000/svg">
<path d="M56.8526 35.8321C56.7865 36.3227 56.1922 36.719 55.8431 36.9737C55.0695 37.5303 53.4844 37.9172 53.2862 38.9267C53.184 39.4392 53.2469 39.971 53.4655 40.4456C54.0034 41.5401 54.5977 42.1344 54.1825 42.4647C53.7675 42.8326 52.6353 43.644 52.6353 43.644C52.6353 43.644 53.692 44.9743 53.1165 45.38C52.3806 45.8895 51.4371 46.1254 51.1823 47.0783C51.1098 47.8319 51.1901 48.5924 51.4182 49.3143C51.4898 50.0251 51.3928 50.7426 51.1352 51.4088C50.7579 52.7556 49.3991 53.5775 48.0311 53.2864C46.7291 53.0222 43.4364 52.2202 39.9266 51.0975C36.5205 52.7391 35.162 58.3528 35.162 58.3528L13.462 54.5789C13.462 54.5789 13.462 52.692 13.7167 49.2766C14.2255 45.4002 13.8843 41.4596 12.7166 37.7283C12.308 36.2047 11.6989 34.7421 10.9051 33.3789C10.1017 32.1748 9.43104 30.8873 8.90477 29.5389C7.92779 26.871 7.58856 24.0116 7.91422 21.1891C8.53348 15.5194 11.6012 10.4042 16.3113 7.18792C19.6791 5.04917 23.5523 3.83844 27.5386 3.67812C32.1812 3.48991 36.8186 4.15833 41.2191 5.65004C43.4434 6.30221 45.4765 7.48386 47.1442 9.09378C48.7537 10.7657 50.0029 12.7502 50.8145 14.9244C51.1929 16.0011 51.5018 17.1009 51.7391 18.2172C52.1336 19.4348 52.6129 20.6233 53.1732 21.7741C53.3297 22.1268 53.4009 22.5115 53.3808 22.8969C53.1919 24.1895 51.1823 24.765 51.1729 26.0953C51.1853 26.3936 51.2765 26.6834 51.4371 26.9351C52.619 29.3577 54.0649 31.6422 55.7489 33.747C56.145 34.2376 56.9564 35.1622 56.8526 35.8321Z" fill="#E3F7FE"/>
<path d="M38.7356 51.3406C38.9388 51.0884 38.9917 50.7471 38.8746 50.4452C38.7575 50.1434 38.4879 49.9272 38.1679 49.8782C35.8402 49.1551 33.5665 48.2681 31.364 47.2238C30.8972 46.9923 30.3309 47.1831 30.0994 47.6499C29.8679 48.1168 30.0587 48.683 30.5255 48.9145C32.8387 50.0132 35.2275 50.9451 37.6735 51.7031C37.7672 51.7334 37.8652 51.7488 37.9638 51.7492C38.0943 51.7461 38.2227 51.7155 38.3407 51.6595C38.3598 51.6519 38.3758 51.6413 38.3941 51.6326C38.4603 51.5987 38.5223 51.5568 38.5785 51.508C38.6267 51.4694 38.6709 51.4259 38.7103 51.3782C38.7195 51.3661 38.7269 51.3532 38.7356 51.3406Z" fill="#7F6E5D"/>
<path d="M35.1619 58.3529L10.3201 58.3246L35.1619 58.3529Z" fill="#35495E"/>
<path d="M35.1622 58.3529H8.74463C8.74463 55.6546 10.2071 51.0032 11.0278 48.6068C11.133 48.3017 11.388 48.0723 11.7023 47.9994C12.0167 47.9265 12.3464 48.0205 12.5752 48.2482C12.9241 48.5973 13.3016 48.9369 13.7167 49.2766C20.3874 54.6734 35.1622 58.3529 35.1622 58.3529Z" fill="#2E91F9"/>
<path d="M44.9639 22.9726C44.9651 23.9322 44.5844 24.8528 43.906 25.5314C43.2274 26.21 42.3067 26.5906 41.3472 26.5893C40.4558 26.5912 39.596 26.2602 38.9361 25.6609V33.8226H30.7744C31.3736 33.1627 31.7047 32.3028 31.7028 31.4115C31.7028 29.4141 30.0836 27.7949 28.0861 27.7949C26.0886 27.7949 24.4694 29.4141 24.4694 31.4115C24.4675 32.3029 24.7985 33.1627 25.3978 33.8226H17.2361V26.3723C17.6212 26.5183 18.0299 26.5918 18.4417 26.5893C20.4391 26.5893 22.0583 24.9701 22.0583 22.9726C22.0583 20.9751 20.4391 19.3559 18.4417 19.3559C18.0299 19.3534 17.6212 19.4269 17.2361 19.5729V12.1226H24.6864C24.5405 12.5077 24.467 12.9164 24.4694 13.3282C24.4726 15.3233 26.091 16.939 28.0861 16.939C30.0812 16.939 31.6996 15.3233 31.7028 13.3282C31.7053 12.9164 31.6318 12.5077 31.4858 12.1226H38.9361V20.2842C39.596 19.685 40.4559 19.354 41.3472 19.3559C42.3067 19.3547 43.2274 19.7352 43.906 20.4138C44.5844 21.0923 44.9651 22.0129 44.9639 22.9726Z" fill="#12BFF5"/>
</svg>
