<svg width="18" height="21" viewBox="0 0 18 21" fill="none" xmlns="http://www.w3.org/2000/svg">
<path d="M17 6.50001L11 1.24001C10.45 0.748051 9.7379 0.476074 8.99997 0.476074C8.26204 0.476074 7.54999 0.748051 6.99997 1.24001L0.999973 6.50001C0.682341 6.78408 0.428873 7.13256 0.256445 7.52225C0.0840165 7.91194 -0.00341463 8.33389 -2.72762e-05 8.76001V17.5C-2.72762e-05 18.2957 0.316043 19.0587 0.878652 19.6213C1.44126 20.1839 2.20432 20.5 2.99997 20.5H15C15.7956 20.5 16.5587 20.1839 17.1213 19.6213C17.6839 19.0587 18 18.2957 18 17.5V8.75001C18.0019 8.32557 17.9138 7.90555 17.7414 7.51769C17.5691 7.12983 17.3163 6.78296 17 6.50001ZM11 18.5H6.99997V13.5C6.99997 13.2348 7.10533 12.9804 7.29287 12.7929C7.4804 12.6054 7.73476 12.5 7.99997 12.5H9.99997C10.2652 12.5 10.5195 12.6054 10.7071 12.7929C10.8946 12.9804 11 13.2348 11 13.5V18.5ZM16 17.5C16 17.7652 15.8946 18.0196 15.7071 18.2071C15.5195 18.3946 15.2652 18.5 15 18.5H13V13.5C13 12.7044 12.6839 11.9413 12.1213 11.3787C11.5587 10.8161 10.7956 10.5 9.99997 10.5H7.99997C7.20432 10.5 6.44126 10.8161 5.87865 11.3787C5.31604 11.9413 4.99997 12.7044 4.99997 13.5V18.5H2.99997C2.73476 18.5 2.4804 18.3946 2.29287 18.2071C2.10533 18.0196 1.99997 17.7652 1.99997 17.5V8.75001C2.00015 8.60802 2.03057 8.4677 2.08919 8.33839C2.14781 8.20907 2.2333 8.09372 2.33997 8.00001L8.33997 2.75001C8.52246 2.58969 8.75706 2.50127 8.99997 2.50127C9.24288 2.50127 9.47748 2.58969 9.65997 2.75001L15.66 8.00001C15.7666 8.09372 15.8521 8.20907 15.9108 8.33839C15.9694 8.4677 15.9998 8.60802 16 8.75001V17.5Z" fill="#5D5D5D"/>
</svg>
