<svg width="24" height="25" viewBox="0 0 24 25" fill="none" xmlns="http://www.w3.org/2000/svg">
<path d="M16.2667 11.8986C15.2341 10.1963 13.7133 8.56743 12.7066 7.28422C13.4238 6.36393 13.1732 5.01159 12.1449 4.41103C12.4257 4.01354 12.7627 3.84072 12.8059 3.82343C13.2034 3.66357 13.5188 2.8513 13.1084 2.14273C12.8535 1.70203 12.3955 1.43848 11.8857 1.43848H7.85888C7.34905 1.43848 6.89107 1.70203 6.63616 2.14273C6.2257 2.8513 6.54543 3.66357 6.9386 3.82343C6.9818 3.84504 7.32313 4.01354 7.59965 4.41103C6.57567 5.00295 6.31643 6.35529 7.03365 7.2799C5.37455 9.40562 2.34583 12.43 2.34583 15.2643C2.34583 19.991 6.42445 21.2354 11.1555 20.9113C12.1967 22.5056 13.9984 23.5598 16.0421 23.5598C19.2566 23.5598 21.8748 20.9416 21.8748 17.727C21.8748 14.586 19.3775 12.0152 16.2667 11.8986ZM11.1684 6.73982H8.5761C8.23045 6.73982 7.93233 6.45899 7.93233 6.09606C7.93233 5.78498 8.15268 5.52574 8.44648 5.46525C8.51129 5.46957 8.5761 5.46957 8.65387 5.45229H11.108C11.1684 5.46525 11.2289 5.46957 11.2894 5.46525C11.5875 5.52142 11.8165 5.78498 11.8165 6.10038C11.8165 6.45899 11.5184 6.73982 11.1684 6.73982ZM7.8632 2.73465C12.1146 2.75625 11.9332 2.6828 11.9894 2.79946C11.661 3.01117 11.1382 3.43458 10.8012 4.1518H8.94767C8.61066 3.43026 8.08787 3.00685 7.75951 2.79946C7.78111 2.75625 7.81567 2.73465 7.8632 2.73465ZM10.2093 17.6968C10.205 18.3665 10.313 19.0189 10.5333 19.6454C6.80466 19.7577 3.642 18.9973 3.642 15.2643C3.642 12.9355 6.58863 9.98458 8.1354 7.98847C8.27798 8.02303 8.42488 8.04032 8.5761 8.04032C11.1857 8.02303 11.2246 8.0792 11.6048 7.98847C12.5121 9.16367 13.8213 10.5722 14.8064 12.0282C13.4151 12.3306 12.2097 13.1256 11.3801 14.2274C10.1704 15.8951 10.2093 17.6968 10.2093 17.6968ZM16.0421 22.2637C13.5404 22.2637 11.5054 20.2287 11.5054 17.727C11.5054 15.2254 13.5404 13.1904 16.0421 13.1904C18.5437 13.1904 20.5787 15.2254 20.5787 17.727C20.5787 20.2287 18.5437 22.2637 16.0421 22.2637Z" fill="#5D5D5D"/>
<path d="M16.9451 15.8865L14.1972 18.6344C13.9423 18.8893 13.9423 19.2998 14.1972 19.5503C14.4521 19.8009 14.8625 19.8053 15.1131 19.5503L17.861 16.8025C18.1159 16.5475 18.1159 16.1371 17.861 15.8865C17.6104 15.6316 17.2 15.6316 16.9451 15.8865Z" fill="#5D5D5D"/>
<path d="M15.0786 16.7637C15.3292 16.5131 15.3292 16.1026 15.0786 15.852C14.828 15.6014 14.4175 15.6014 14.1669 15.852C13.9164 16.1026 13.9164 16.5131 14.1669 16.7637C14.4175 17.0186 14.828 17.0186 15.0786 16.7637Z" fill="#5D5D5D"/>
<path d="M16.919 18.604C16.6684 18.8546 16.6684 19.265 16.919 19.5156C17.1696 19.7662 17.5801 19.7662 17.8307 19.5156C18.0813 19.265 18.0813 18.8546 17.8307 18.604C17.5801 18.3534 17.1696 18.3534 16.919 18.604Z" fill="#5D5D5D"/>
<path d="M10.4642 15.2167L10.3389 14.4217C10.542 14.3741 10.7666 14.3525 11.0129 14.3525C11.3369 14.3525 11.5875 14.426 11.7647 14.5772C11.9461 14.7241 12.0369 14.9358 12.0369 15.2167C12.0369 15.558 11.9375 15.8561 11.7388 16.1067C11.54 16.3573 11.2808 16.5604 10.9567 16.7202C10.6327 16.8758 10.2698 16.9578 9.86362 16.9578C9.5655 16.9578 9.32355 16.906 9.14641 16.798C8.96494 16.69 8.83964 16.5517 8.77052 16.3875C8.70139 16.219 8.66682 15.9771 8.66682 15.6574V13.9032H8.01441V13.0434H8.66682V12.5811C8.66682 12.404 8.65386 12.2787 8.62362 12.2095C8.59769 12.1361 8.55449 12.0799 8.494 12.0454C8.43351 12.0065 8.3471 11.9892 8.23044 11.9892C8.09651 11.9892 7.94961 12.0194 7.78542 12.0799L7.4873 11.3368C7.66877 11.2633 7.83727 11.2115 7.99713 11.1769C8.16131 11.1424 8.35574 11.1294 8.58473 11.1294C8.85261 11.1294 9.06431 11.1812 9.22418 11.2806C9.38836 11.38 9.50501 11.5269 9.57846 11.717C9.65191 11.9114 9.6908 12.1836 9.6908 12.5422V13.0434H12.2486V13.9032H9.6908V15.679C9.6908 15.8604 9.72104 15.9814 9.78153 16.0332C9.84202 16.0851 9.92843 16.111 10.0364 16.111C10.287 16.111 10.5074 16.0332 10.7105 15.8777C10.9135 15.7222 11.0129 15.5666 11.0129 15.4111C11.0129 15.342 10.987 15.2901 10.9351 15.2555C10.8833 15.221 10.8055 15.2037 10.7105 15.2037C10.624 15.1951 10.5376 15.2037 10.4642 15.2167Z" fill="#5D5D5D"/>
</svg>
