<svg width="21" height="21" viewBox="0 0 21 21" fill="none" xmlns="http://www.w3.org/2000/svg">
<path d="M19.3542 13.7293C19.1069 13.6065 18.821 13.5869 18.5593 13.6748C18.2975 13.7627 18.0814 13.9509 17.9584 14.1981C17.2991 15.5296 16.2958 16.6605 15.0524 17.4739C13.8091 18.2873 12.3709 18.7534 10.8868 18.8241C9.40269 18.8947 7.92671 18.5673 6.6117 17.8758C5.29669 17.1842 4.19048 16.1537 3.40765 14.8909C2.62482 13.6281 2.19385 12.179 2.15936 10.6936C2.12487 9.20823 2.48813 7.74066 3.21151 6.44289C3.93489 5.14512 4.99208 4.06434 6.27358 3.31251C7.55507 2.56068 9.01427 2.16513 10.5 2.16684C12.0533 2.16011 13.577 2.59146 14.8962 3.41137C16.2154 4.23128 17.2767 5.40654 17.9584 6.80225C18.0827 7.0509 18.3007 7.23997 18.5644 7.32787C18.8281 7.41578 19.116 7.39532 19.3646 7.271C19.6133 7.14668 19.8023 6.92868 19.8902 6.66496C19.9781 6.40124 19.9577 6.1134 19.8334 5.86476C18.7882 3.76136 17.0628 2.07294 14.9372 1.07354C12.8117 0.074129 10.4108 -0.177599 8.1242 0.35921C5.8376 0.896018 3.79953 2.18985 2.34079 4.03071C0.882048 5.87157 0.0882568 8.15141 0.0882568 10.5002C0.0882568 12.8489 0.882048 15.1288 2.34079 16.9696C3.79953 18.8105 5.8376 20.1043 8.1242 20.6411C10.4108 21.1779 12.8117 20.9262 14.9372 19.9268C17.0628 18.9274 18.7882 17.239 19.8334 15.1356C19.8954 15.012 19.9323 14.8773 19.9418 14.7394C19.9512 14.6014 19.9331 14.4629 19.8885 14.332C19.8439 14.2011 19.7737 14.0804 19.682 13.9769C19.5902 13.8735 19.4788 13.7893 19.3542 13.7293ZM19.875 9.4585H9.88545L12.2813 7.07309C12.3784 6.97596 12.4555 6.86066 12.508 6.73376C12.5606 6.60687 12.5876 6.47086 12.5876 6.3335C12.5876 6.19615 12.5606 6.06014 12.508 5.93325C12.4555 5.80635 12.3784 5.69104 12.2813 5.59392C12.1842 5.4968 12.0689 5.41976 11.942 5.36719C11.8151 5.31463 11.6791 5.28758 11.5417 5.28758C11.4043 5.28758 11.2683 5.31463 11.1414 5.36719C11.0145 5.41976 10.8992 5.4968 10.8021 5.59392L6.63545 9.76059C6.54062 9.85965 6.46628 9.97647 6.4167 10.1043C6.31252 10.3579 6.31252 10.6424 6.4167 10.896C6.46628 11.0239 6.54062 11.1407 6.63545 11.2398L10.8021 15.4064C10.899 15.5041 11.0142 15.5815 11.1411 15.6344C11.268 15.6873 11.4042 15.7145 11.5417 15.7145C11.6792 15.7145 11.8154 15.6873 11.9423 15.6344C12.0692 15.5815 12.1844 15.5041 12.2813 15.4064C12.3789 15.3096 12.4564 15.1944 12.5093 15.0674C12.5622 14.9405 12.5894 14.8043 12.5894 14.6668C12.5894 14.5293 12.5622 14.3932 12.5093 14.2662C12.4564 14.1393 12.3789 14.0241 12.2813 13.9273L9.88545 11.5418H19.875C20.1513 11.5418 20.4163 11.4321 20.6116 11.2367C20.807 11.0414 20.9167 10.7764 20.9167 10.5002C20.9167 10.2239 20.807 9.95895 20.6116 9.7636C20.4163 9.56825 20.1513 9.4585 19.875 9.4585Z" fill="white"/>
</svg>
