<svg width="121" height="59" viewBox="0 0 121 59" fill="none" xmlns="http://www.w3.org/2000/svg">
<g clip-path="url(#clip0_5302_12774)">
<path d="M5.81689 39.7195H8.33862V40.448H6.73144V41.8074H8.26801V42.5376H6.73144V44.7131H5.81689V39.7195Z" fill="white"/>
<path d="M14.853 39.7195H15.7693V44.7131H14.853V39.7195Z" fill="white"/>
<path d="M22.5476 39.7195H23.637L25.2963 43.638H25.3081V39.7195H26.1385V44.7131H25.0458L23.3932 40.8198H23.3798V44.7131H22.5476V39.7195Z" fill="white"/>
<path d="M35.4051 43.5118H33.6903L33.3322 44.7131H32.416L34.0972 39.7195H35.1059L36.7147 44.7131H35.7716L35.4051 43.5118ZM35.2118 42.8102L34.583 40.4766H34.5696L33.8921 42.8102H35.2118Z" fill="white"/>
<path d="M42.9889 39.7195H44.0749L45.7342 43.638H45.746V39.7195H46.5765V44.7131H45.4921L43.8412 40.8198H43.811V44.7131H42.9822L42.9889 39.7195Z" fill="white"/>
<path d="M56.522 44.6104C56.1778 44.7416 55.8109 44.8028 55.4427 44.7905C53.9297 44.7905 53.1479 43.68 53.1479 42.223C53.1479 40.766 53.9297 39.6538 55.4141 39.6538C55.7926 39.657 56.1675 39.7265 56.522 39.8591L56.4733 40.6835C56.1881 40.5095 55.8624 40.4132 55.5285 40.4042C54.7703 40.4042 54.118 40.9191 54.118 42.2163C54.118 43.5135 54.7703 44.0249 55.5285 44.0249C55.8634 44.0437 56.1953 43.9521 56.4733 43.7641L56.522 44.6104Z" fill="white"/>
<path d="M63.0432 39.7195H65.6658V40.448H63.9578V41.7805H65.575V42.5107H63.9578V43.9812H65.7398V44.7131H63.0499L63.0432 39.7195Z" fill="white"/>
<path d="M56.2866 19.878C55.2797 17.8017 53.7202 16.0435 51.7795 14.7969C49.8551 13.5166 47.5943 12.8367 45.2835 12.8435H37.6292C37.1241 12.8444 36.6398 13.0448 36.2815 13.4011C35.9233 13.7574 35.7201 14.2409 35.7161 14.7464V37.7779H45.2835C46.6263 37.7794 47.9595 37.5518 49.2258 37.1049C51.6567 36.2524 53.6556 34.7214 55.2225 32.5117C56.7893 30.3021 57.5705 27.8989 57.566 25.3023C57.5613 23.4198 57.1236 21.5638 56.2866 19.878ZM49.4023 29.8282C48.1347 31.5241 46.2294 32.3726 43.6864 32.3737H42.2036V18.2476H43.6864C46.2216 18.2476 48.1269 19.0962 49.4023 20.7932C50.3715 22.0924 50.8802 23.6779 50.8481 25.2989C50.8784 26.9259 50.3701 28.5172 49.4023 29.8248V29.8282Z" fill="white"/>
<path d="M5.81689 37.7779H10.3728C10.8816 37.7779 11.3697 37.5763 11.7304 37.2172C12.0911 36.8581 12.2951 36.3707 12.2977 35.8616V12.8435H7.74349C7.49087 12.8428 7.24059 12.892 7.00699 12.9883C6.77338 13.0845 6.56103 13.2259 6.38208 13.4044C6.20314 13.5828 6.06111 13.7949 5.96413 14.0283C5.86715 14.2618 5.81711 14.5121 5.81689 14.7649V37.7779Z" fill="white"/>
<path d="M21.3725 29.5017H25.4241C28.6115 29.5017 30.8934 28.5483 32.2697 26.6415C33.3311 25.1609 33.8612 23.299 33.8601 21.0557C33.8601 18.7675 33.2028 16.8876 31.8881 15.416C30.3672 13.6976 28.1397 12.8401 25.2055 12.8435H16.8082C16.3002 12.8453 15.8136 13.0485 15.455 13.4086C15.0964 13.7688 14.895 14.2565 14.895 14.7649V37.7779H19.4543C19.962 37.7765 20.4487 37.5743 20.808 37.2153C21.1674 36.8563 21.3703 36.3697 21.3725 35.8615V29.5017ZM26.426 23.3624C25.9032 23.9714 24.9365 24.276 23.5345 24.276H21.3725V18.0642H23.558C24.8648 18.0642 25.79 18.3446 26.3336 18.9055C26.8771 19.4663 27.1489 20.2077 27.1489 21.1297C27.1422 22.0652 26.9018 22.8105 26.426 23.3624Z" fill="white"/>
<path d="M77.8845 33.4691C77.7486 32.7749 77.3546 32.1582 76.782 31.7435C76.2095 31.3288 75.501 31.1469 74.7996 31.2347C74.1791 31.405 73.5383 31.4899 72.8949 31.4871C71.3002 31.5187 69.7462 30.982 68.5105 29.9729C66.9347 28.6908 66.1501 26.9382 66.1568 24.7151C66.1636 22.492 66.9481 20.7327 68.5105 19.4372C69.7462 18.428 71.3002 17.8913 72.8949 17.9229C73.4867 17.9229 74.0763 17.9963 74.65 18.1416C75.3727 18.2744 76.1186 18.1165 76.7258 17.7023C77.3329 17.2881 77.7523 16.651 77.893 15.9292L78.4847 12.9007C76.3272 12.0561 74.3849 11.6338 72.6578 11.6338C69.5627 11.6051 66.5571 12.6731 64.1731 14.6488C61.0058 17.2196 59.4227 20.5751 59.4238 24.7151C59.4249 28.8551 61.008 32.2044 64.1731 34.7629C66.5404 36.7322 69.5274 37.8002 72.6057 37.7779C74.399 37.7779 76.3603 37.3578 78.4898 36.5177L77.8845 33.4691Z" fill="white"/>
<path d="M95.2978 15.9359C93.1964 15.9359 92.3844 17.5544 92.3256 17.7698C83.7702 40.0829 67.4563 44.6996 67.4563 44.6996C67.4563 44.6996 92.4399 44.0367 102.481 15.9292L95.2978 15.9359Z" fill="#ED017F"/>
<path d="M104.62 11.6607H114.399C100.943 43.9375 67.4563 44.6996 67.4563 44.6996C67.4563 44.6996 90.3637 39.3577 101.821 13.4845C101.821 13.4845 102.601 11.7163 104.62 11.6607Z" fill="#ED017F"/>
<path d="M94.5918 25.7229C82.7447 41.1345 67.4563 44.6996 67.4563 44.6996C67.4563 44.6996 100.943 43.9375 114.399 11.6607L94.5918 25.7229Z" fill="url(#paint0_radial_5302_12774)"/>
<path d="M96.4746 15.2781C86.5811 39.6505 67.4563 44.6996 67.4563 44.6996C67.4563 44.6996 97.406 44.353 108.831 13.2524H99.5394C99.5394 13.2524 97.5674 13.217 96.4746 15.2781Z" fill="white"/>
<mask id="mask0_5302_12774" style="mask-type:alpha" maskUnits="userSpaceOnUse" x="67" y="13" width="41" height="32">
<path d="M99.7663 13.8967H107.849C96.2628 43.9896 67.4563 44.6996 67.4563 44.6996C67.4563 44.6996 87.0955 39.7397 96.9723 15.729C96.9723 15.729 97.7052 13.8967 99.7663 13.8967Z" fill="#ED017F"/>
</mask>
<g mask="url(#mask0_5302_12774)">
<path d="M107.864 13.8866H67.4563V44.6996H107.864V13.8866Z" fill="white"/>
<path d="M100.57 27.0184C93.5814 36.3141 84.3855 42.573 75.1712 45.1724C70.5631 46.4729 65.9517 46.8549 61.606 46.2542L66.4241 45.7343V12.8536H108.409V12.401C106.569 17.6508 103.925 22.5822 100.57 27.0184Z" fill="white"/>
<path d="M100.553 27.0066C93.5698 36.2973 84.3823 42.5477 75.1679 45.1488C70.5649 46.4494 65.9518 46.8313 61.6111 46.2307L66.4209 45.7343V12.8536H108.382V12.3976C106.546 17.6445 103.905 22.5732 100.553 27.0066Z" fill="#FFFCFD"/>
<path d="M100.538 26.9948C93.5579 36.2771 84.3738 42.5242 75.1712 45.1236C70.5716 46.4241 65.9635 46.8061 61.6228 46.2071L66.4242 45.7343V12.8536H108.367V12.3926C106.53 17.6371 103.889 22.5635 100.538 26.9948Z" fill="#FFFAFB"/>
<path d="M100.521 26.9814C93.5444 36.2569 84.3704 42.504 75.1711 45.1C70.5715 46.4006 65.9719 46.7825 61.6345 46.1819L66.4241 45.7343V12.8536H108.345V12.3926C106.508 17.6318 103.869 22.5535 100.521 26.9814Z" fill="#FEF8FA"/>
<path d="M100.504 26.9696C93.5326 36.2418 84.3653 42.4838 75.171 45.0765C70.5748 46.372 65.9751 46.759 61.6428 46.1583L66.424 45.7343V12.8536H108.32V12.3842C106.487 17.6227 103.851 22.5435 100.504 26.9696Z" fill="#FEF7F9"/>
<path d="M100.489 26.9578C93.5209 36.225 84.3587 42.4602 75.1712 45.0513C70.58 46.3484 65.9803 46.7337 61.6514 46.1331L66.4242 45.7343V12.8536H108.3V12.3842C106.468 17.6183 103.833 22.5351 100.489 26.9578Z" fill="#FEF5F8"/>
<path d="M100.466 26.9444C93.5059 36.198 84.3469 42.4333 75.1679 45.026C70.5766 46.3215 65.9854 46.7085 61.6548 46.1078L66.4208 45.7326V12.8536H108.281V12.3808C106.448 17.612 103.811 22.5254 100.466 26.9444Z" fill="#FEF4F6"/>
<path d="M100.452 26.9293C93.4974 36.1829 84.3452 42.4081 75.1712 45.0042C70.5833 46.2997 65.9921 46.6866 61.6665 46.081L66.4242 45.7344V12.8536H108.256V12.3775C106.428 17.6051 103.795 22.5148 100.452 26.9293Z" fill="#FEF3F5"/>
<path d="M100.437 26.9208C93.4839 36.1745 84.3384 42.3997 75.1711 44.9789C70.5883 46.2761 66.0004 46.6614 61.6748 46.0608L66.4241 45.7344V12.8536H108.236V12.3775C106.405 17.6005 103.774 22.5069 100.437 26.9208Z" fill="#FEF1F4"/>
<path d="M100.42 26.9057C93.4722 36.1475 84.3268 42.371 75.1712 44.9553C70.5918 46.2508 66.0039 46.6378 61.6833 46.0338L66.4242 45.7343V12.8536H108.216V12.3724C106.389 17.5932 103.759 22.4966 100.42 26.9057Z" fill="#FEF0F3"/>
<path d="M100.404 26.8973C93.4604 36.1324 84.3267 42.3458 75.1712 44.9301C70.5917 46.2223 66.0123 46.6126 61.6951 46.0086L66.4241 45.7344V12.8536H108.199V12.369C106.373 17.5888 103.743 22.4908 100.404 26.8973Z" fill="#FEEEF2"/>
<path d="M100.388 26.8805C93.4485 36.1122 84.3216 42.3256 75.1711 44.9066C70.595 46.1987 66.0155 46.5891 61.7034 45.985L66.424 45.7344V12.8536H108.17V12.369C106.347 17.5821 103.721 22.4782 100.388 26.8805Z" fill="#FDEDF1"/>
<path d="M100.372 26.8687C93.4369 36.0954 84.3133 42.3021 75.1712 44.883C70.6002 46.1735 66.0207 46.5571 61.7119 45.9598L66.4191 45.7344V12.8536H108.145V12.364C106.323 17.574 103.701 22.4677 100.372 26.8687Z" fill="#FDECF0"/>
<path d="M100.356 26.8569C93.4234 36.0752 84.3099 42.2819 75.1711 44.8594C70.6034 46.1516 66.029 46.5419 61.7219 45.9329L66.4291 45.736V12.8536H108.127V12.3606C106.307 17.5681 103.685 22.4592 100.356 26.8569Z" fill="#FDEAEF"/>
<path d="M100.34 26.8451C93.4166 36.055 84.3015 42.2567 75.1711 44.8342C70.6034 46.1264 66.0324 46.5167 61.7219 45.9076L66.4191 45.7394V12.8536H108.107V12.3573C106.285 17.5607 103.664 22.4486 100.34 26.8451Z" fill="#FDE9EE"/>
<path d="M100.323 26.8333C93.4049 36.0399 84.2981 42.2331 75.1711 44.809C70.6085 46.1011 66.0357 46.4814 61.7354 45.8841L66.4241 45.7343V12.8536H108.086V12.3488C106.268 17.552 103.648 22.4391 100.323 26.8333Z" fill="#FDE8ED"/>
<path d="M100.308 26.8199C93.3916 36.0231 84.2898 42.2129 75.1712 44.7888C70.612 46.0776 66.0443 46.4561 61.7439 45.8588L66.4242 45.7343V12.8536H108.066V12.3488C106.247 17.5465 103.629 22.4288 100.308 26.8199Z" fill="#FDE6EC"/>
<path d="M100.298 26.8081C93.3865 36.0029 84.2915 42.1927 75.178 44.7652C70.6187 46.0523 66.0594 46.4326 61.759 45.8353L66.4309 45.7343V12.8536H108.043V12.3488C106.228 17.5422 103.615 22.4205 100.298 26.8081Z" fill="#FCE5EB"/>
<path d="M100.276 26.7963C93.368 35.9827 84.278 42.1692 75.1713 44.7417C70.6153 46.0288 66.0561 46.409 61.759 45.8101L66.4242 45.7343V12.8536H108.031V12.3488C106.211 17.5384 103.595 22.4127 100.276 26.7963Z" fill="#FCE4EA"/>
<path d="M100.259 26.7845C93.3562 35.9658 84.2729 42.1439 75.1712 44.7164C70.6203 46.0002 66.061 46.3838 61.7673 45.7865L66.4241 45.7343V12.8536H108.002V12.3488C106.185 17.5335 103.572 22.4036 100.259 26.7845Z" fill="#FCE2E9"/>
<path d="M100.242 26.7761C93.3494 35.9541 84.2712 42.1271 75.1711 44.6962C70.6202 45.98 66.0693 46.3636 61.7791 45.7663L66.4241 45.7377V12.8536H107.977V12.3488C106.162 17.5303 103.553 22.3976 100.242 26.7761Z" fill="#FCE1E8"/>
<path d="M100.227 26.7593C93.3343 35.9305 84.256 42.1035 75.1778 44.6676C70.6303 45.9531 66.0794 46.3316 61.7942 45.7377H66.4308V12.8536H107.955V12.3371C106.141 17.5159 103.534 22.3813 100.227 26.7593Z" fill="#FCE0E7"/>
<path d="M100.21 26.7475C93.3175 35.9103 84.2527 42.08 75.1711 44.6441C70.632 45.9245 66.0812 46.3081 61.7959 45.7141H66.4241V12.8536H107.937V12.3371C106.123 17.5122 103.516 22.3737 100.21 26.7475Z" fill="#FCDEE6"/>
<path d="M100.19 26.7358C93.3075 35.8935 84.2495 42.0548 75.1713 44.6205C70.6322 45.8992 66.0847 46.2828 61.8044 45.6906H66.4242V12.8536H107.917V12.332C106.106 17.5064 103.499 22.3662 100.19 26.7358Z" fill="#FCDDE5"/>
<path d="M100.175 26.7189C93.2957 35.8733 84.241 42.0295 75.1712 44.5953C70.6321 45.8757 66.093 46.2593 61.8127 45.6653H66.4241V12.8536H107.893V12.3286C106.084 17.4982 103.48 22.3534 100.175 26.7189Z" fill="#FCDCE4"/>
<path d="M100.158 26.7122C93.2821 35.8565 84.2375 42.0228 75.171 44.5751C70.6319 45.8504 66.0928 46.234 61.8193 45.6418H66.424V12.8536H107.873V12.3236C106.063 17.4914 103.46 22.3457 100.158 26.7122Z" fill="#FCDAE3"/>
<path d="M100.141 26.6953C93.2704 35.838 84.2292 41.9908 75.1661 44.5515C70.6354 45.8268 66.1014 46.2071 61.8279 45.6132H66.4241V12.8536H107.853V12.3202C106.045 17.4841 103.443 22.3342 100.141 26.6953Z" fill="#FBD9E2"/>
<path d="M100.13 26.6836C93.262 35.8211 84.2275 41.9672 75.1695 44.5263C70.6438 45.8033 66.1131 46.1819 61.843 45.5879H66.4275V12.8536H107.828V12.3202C106.022 17.4788 103.425 22.3246 100.13 26.6836Z" fill="#FBD8E1"/>
<path d="M100.109 26.6718C93.247 35.8009 84.2175 41.9471 75.1662 44.5061C70.6439 45.7814 66.1132 46.1617 61.8481 45.5678H66.4242V12.8536H107.807V12.3169C106.005 17.474 103.407 22.3175 100.109 26.6718Z" fill="#FBD7E0"/>
<path d="M100.094 26.6584C93.2368 35.7808 84.2124 41.9185 75.1661 44.4792C70.6438 45.7545 66.1165 46.1331 61.8564 45.5409H66.4241V12.8536H107.78V12.3068C105.979 17.4613 103.386 22.3033 100.094 26.6584Z" fill="#FBD5DF"/>
<path d="M100.077 26.6466C93.2216 35.764 84.2039 41.9017 75.166 44.454C70.6488 45.7293 66.1248 46.1095 61.8647 45.5156H66.424V12.8536H107.764V12.3068C105.962 17.4576 103.369 22.2957 100.077 26.6466Z" fill="#FBD4DF"/>
<path d="M100.061 26.6348C93.2099 35.7488 84.2007 41.8781 75.1661 44.4304C70.6523 45.7024 66.1333 46.0809 61.8733 45.487H66.4242V12.8536H107.743V12.3068C105.942 17.4532 103.35 22.2872 100.061 26.6348Z" fill="#FBD3DE"/>
<path d="M100.045 26.623C93.1981 35.7286 84.1922 41.8579 75.1644 44.4052C70.6539 45.6771 66.1349 46.0574 61.8833 45.4635H66.4224V12.8536H107.723V12.3068C105.921 17.4483 103.331 22.2781 100.045 26.623Z" fill="#FBD1DD"/>
<path d="M100.029 26.6079C93.1864 35.7051 84.1888 41.831 75.1661 44.3783C70.6556 45.6502 66.1417 46.0305 61.885 45.4366H66.4241V12.8536H107.695V12.3068C105.895 17.4426 103.309 22.2673 100.029 26.6079Z" fill="#FAD0DC"/>
<path d="M100.013 26.5978C93.1745 35.6916 84.1804 41.8142 75.1661 44.3564C70.6606 45.63 66.15 46.0086 61.8967 45.4147H66.4241V12.8536H107.68V12.2967C105.881 17.4327 103.294 22.2574 100.013 26.5978Z" fill="#FACFDB"/>
<path d="M99.9968 26.586C93.1612 35.6714 84.1772 41.7889 75.1662 44.3328C70.6641 45.6048 66.1535 45.98 61.9053 45.3911H66.4242V12.8536H107.659V12.2967C105.86 17.4283 103.275 22.2489 99.9968 26.586Z" fill="#FACEDA"/>
<path d="M99.9765 26.5742C93.1494 35.6596 84.1737 41.7654 75.1661 44.3093C70.669 45.5812 66.1618 45.9564 61.9136 45.3676H66.4241V12.8536H107.634V12.2917C105.84 17.4223 103.256 22.2412 99.9765 26.5742Z" fill="#FACCD9"/>
<path d="M99.9613 26.5624C93.1409 35.6361 84.1585 41.7502 75.166 44.284C70.669 45.5526 66.1652 45.9312 61.9253 45.3423H66.4241V12.8536H107.612V12.2883C105.82 17.4157 103.238 22.2317 99.9613 26.5624Z" fill="#FACBD8"/>
<path d="M99.9446 26.5507C93.1259 35.6193 84.157 41.725 75.1662 44.2605C70.6725 45.5274 66.1737 45.9076 61.9338 45.3188H66.4242V12.8536H107.594V12.2883C105.799 17.4107 103.218 22.2223 99.9446 26.5507Z" fill="#FACAD7"/>
<path d="M99.9277 26.5372C93.1174 35.5991 84.1585 41.6998 75.166 44.2353C70.6757 45.5038 66.1769 45.8841 61.9404 45.2935H66.4241V12.8536H107.57V12.2832C105.779 17.4036 103.201 22.2129 99.9277 26.5372Z" fill="#FAC9D7"/>
<path d="M99.9127 26.5255C93.1007 35.5789 84.1452 41.6762 75.1662 44.2117C70.6758 45.4803 66.1821 45.8589 61.949 45.27H66.4242V12.8536H107.55V12.2799C105.759 17.3967 103.183 22.2029 99.9127 26.5255Z" fill="#F9C7D6"/>
<path d="M99.8958 26.5103C93.0939 35.5621 84.1401 41.6527 75.1661 44.1882C70.6808 45.4551 66.1904 45.8319 61.9573 45.2464H66.4241V12.8536H107.527V12.2799C105.738 17.3919 103.164 22.1932 99.8958 26.5103Z" fill="#F9C6D5"/>
<path d="M99.8791 26.5019C93.0805 35.5469 84.1318 41.6358 75.1662 44.1679C70.6843 45.4365 66.1939 45.8117 61.9658 45.2262H66.4242V12.8536H107.505V12.2765C105.719 17.3867 103.146 22.1864 99.8791 26.5019Z" fill="#F9C5D4"/>
<path d="M99.8639 26.4851C93.0687 35.525 84.1283 41.6106 75.1661 44.1393C70.6842 45.4063 66.1972 45.7831 61.9741 45.1976H66.4241V12.8536H107.485V12.2715C105.699 17.3774 103.128 22.1731 99.8639 26.4851Z" fill="#F9C4D3"/>
<path d="M99.847 26.4733C93.0569 35.5065 84.1199 41.582 75.1661 44.1141C70.6892 45.3827 66.2055 45.7545 61.9858 45.169H66.4241V12.8536H107.464V12.2681C105.678 17.3706 103.109 22.1633 99.847 26.4733Z" fill="#F9C2D2"/>
<path d="M99.832 26.4615C93.0452 35.4897 84.1166 41.5668 75.1662 44.0906C70.6927 45.3541 66.2141 45.7293 61.9944 45.1438H66.4242V12.8536H107.444V12.2631C105.661 17.3637 103.093 22.1543 99.832 26.4615Z" fill="#F9C1D1"/>
<path d="M99.8151 26.4497C93.0333 35.4746 84.1081 41.5433 75.1661 44.067C70.6925 45.3306 66.2173 45.7058 62.001 45.1203H66.4241V12.8536H107.421V12.2631C105.637 17.3586 103.071 22.1449 99.8151 26.4497Z" fill="#F9C0D1"/>
<path d="M99.7933 26.4396C93.0149 35.4577 84.0981 41.5264 75.1611 44.0451C70.6909 45.3087 66.2174 45.6855 62.0044 45.1H66.4191V12.8536H107.4V12.2597C105.618 17.3539 103.051 22.1382 99.7933 26.4396Z" fill="#F9BFD0"/>
<path d="M99.7832 26.4245C93.0082 35.4342 84.0964 41.4978 75.1661 44.0182C70.701 45.2817 66.2308 45.6569 62.0178 45.0681H66.4241V12.8536H107.377V12.2563C105.597 17.3456 103.035 22.1258 99.7832 26.4245Z" fill="#F8BECF"/>
<path d="M99.7663 26.4127C92.9963 35.4174 84.0912 41.4777 75.166 43.998C70.7042 45.2582 66.234 45.6334 62.0261 45.0445H66.424V12.8536H107.358V12.2513C105.579 17.338 103.017 22.1159 99.7663 26.4127Z" fill="#F8BCCE"/>
<path d="M99.7513 26.4009C92.9846 35.4005 84.083 41.4541 75.1628 43.9728C70.7044 45.233 66.2375 45.6081 62.0347 45.0193H66.4242V12.8536H107.337V12.2479C105.559 17.3315 102.999 22.1065 99.7513 26.4009Z" fill="#F8BBCD"/>
<path d="M99.7343 26.3892C92.9728 35.3803 84.0795 41.4339 75.166 43.9492C70.7093 45.2044 66.2458 45.5812 62.0413 44.9957H66.424V12.8536H107.316V12.2479C105.536 17.3263 102.978 22.0969 99.7343 26.3892Z" fill="#F8BACD"/>
<path d="M99.7177 26.3757C92.9594 35.3568 84.0712 41.4137 75.1628 43.9257C70.7128 45.1808 66.2527 45.556 62.0498 44.9705H66.4208V12.8536H107.291V12.2429C105.516 17.3189 102.96 22.087 99.7177 26.3757Z" fill="#F8B9CC"/>
<path d="M99.6974 26.3639C92.9476 35.345 84.0627 41.3851 75.1627 43.9004C70.7127 45.1573 66.2526 45.5274 62.0581 44.947H66.4291V12.8536H107.281V12.2395C105.504 17.3146 102.946 22.0803 99.6974 26.3639Z" fill="#F8B8CB"/>
<path d="M99.6822 26.3522C92.9358 35.3248 84.0593 41.3649 75.1626 43.8769C70.716 45.132 66.2626 45.5039 62.0698 44.9234H66.424V12.8536H107.251V12.2395C105.476 17.3088 102.923 22.0702 99.6822 26.3522Z" fill="#F8B6CA"/>
<path d="M99.6655 26.3404C92.9241 35.3046 84.056 41.3447 75.1628 43.8516C70.7212 45.1084 66.2712 45.4803 62.0784 44.8981H66.4241V12.8536H107.231V12.2361C105.455 17.3016 102.903 22.0598 99.6655 26.3404Z" fill="#F7B5C9"/>
<path d="M99.6503 26.3286C92.9123 35.2878 84.0475 41.3212 75.1627 43.8264C70.7244 45.0815 66.2744 45.4534 62.0867 44.8729H66.424V12.8536H107.207V12.2311C105.434 17.2943 102.885 22.0504 99.6503 26.3286Z" fill="#F7B4C9"/>
<path d="M99.6336 26.3151C92.8989 35.2727 84.0426 41.2892 75.1628 43.8129C70.7246 45.0681 66.2779 45.4399 62.0952 44.8578H66.4242V12.8536H107.19V12.2311C105.416 17.2893 102.867 22.0407 99.6336 26.3151Z" fill="#F7B3C8"/>
<path d="M99.6252 26.3C92.9006 35.2525 84.0443 41.2741 75.1712 43.7793C70.738 45.0361 66.2947 45.4063 62.1104 44.8258H66.4326V12.8536H107.167V12.2227C105.399 17.2786 102.854 22.028 99.6252 26.3Z" fill="#F7B2C7"/>
<path d="M99.6017 26.2916C92.8771 35.2323 84.0309 41.2556 75.1628 43.7591C70.733 45.0109 66.2947 45.3827 62.1104 44.8022H66.4242V12.8536H107.142V12.2227C105.373 17.2753 102.829 22.0217 99.6017 26.2916Z" fill="#F7B1C6"/>
<path d="M99.5848 26.2714C92.8602 35.2121 84.0224 41.2287 75.1627 43.7322C70.7329 44.9806 66.298 45.3558 62.1187 44.7736H66.4241V12.8536H107.121V12.2227C105.354 17.2692 102.811 22.009 99.5848 26.2714Z" fill="#F7AFC5"/>
<path d="M99.5696 26.2714C92.845 35.2071 84.019 41.2152 75.1626 43.7187C70.7362 44.9671 66.303 45.339 62.1304 44.7568H66.424V12.8536H107.108V12.2159C105.339 17.2641 102.796 22.0061 99.5696 26.2714Z" fill="#F7AEC5"/>
<path d="M99.5529 26.2512C92.8435 35.1785 84.0107 41.1866 75.1628 43.6868C70.7414 44.9352 66.3115 45.3053 62.1389 44.7249H66.4242V12.8536H107.078V12.2159C105.312 17.2568 102.774 21.9919 99.5529 26.2512Z" fill="#F7ADC4"/>
<path d="M99.5359 26.2394C92.8265 35.1566 84.0072 41.1681 75.1593 43.6632C70.7378 44.9066 66.3114 45.2784 62.1438 44.6996H66.4206V12.8536H107.054V12.2109C105.291 17.2493 102.754 21.9822 99.5359 26.2394Z" fill="#F7ACC3"/>
<path d="M99.521 26.2276C92.8183 35.1448 83.9989 41.1428 75.1628 43.638C70.7448 44.883 66.3233 45.2532 62.1558 44.6761H66.4242V12.8536H107.037V12.2075C105.273 17.2422 102.737 21.972 99.521 26.2276Z" fill="#F6ABC2"/>
<path d="M99.5041 26.2142C92.8064 35.1313 83.9955 41.1193 75.1627 43.6144C70.7497 44.8578 66.3266 45.2296 62.1624 44.6525H66.4241V12.8536H107.022V12.2075C105.257 17.2384 102.721 21.9638 99.5041 26.2142Z" fill="#F6AAC2"/>
<path d="M99.484 26.2024C92.7947 35.1061 83.9905 41.0991 75.1628 43.5908C70.7498 44.8342 66.3351 45.2043 62.1709 44.6273H66.4242V12.8536H106.994V12.2025C105.233 17.2316 102.7 21.9551 99.484 26.2024Z" fill="#F6A9C1"/>
<path d="M99.4688 26.1906C92.7828 35.0859 83.9904 41.0772 75.1627 43.5656C70.7531 44.809 66.3384 45.1808 62.1792 44.6037H66.4241V12.8536H106.973V12.1991C105.213 17.2245 102.681 21.9449 99.4688 26.1906Z" fill="#F6A8C0"/>
<path d="M99.457 26.1788C92.7761 35.0708 83.9803 41.0537 75.1677 43.5421C70.7614 44.7854 66.3484 45.1572 62.1926 44.5751H66.4291V12.8536H106.945V12.1991C105.19 17.2203 102.664 21.937 99.457 26.1788Z" fill="#F6A7C0"/>
<path d="M99.4352 26.1671C92.7577 35.0506 83.9686 41.0301 75.1628 43.5168C70.7565 44.7602 66.3518 45.132 62.196 44.5515H66.4241V12.8536H106.928V12.1907C105.172 17.2111 102.644 21.9265 99.4352 26.1671Z" fill="#F6A5BF"/>
<path d="M99.42 26.1536C92.7459 35.0304 83.9669 41.0049 75.1627 43.4933C70.7615 44.7366 66.3552 45.1034 62.2078 44.5263H66.4241V12.8536H106.908V12.1907C105.153 17.2064 102.626 21.9174 99.42 26.1536Z" fill="#F6A4BE"/>
<path d="M99.4032 26.1418C92.7323 35.0203 83.9584 40.9864 75.1626 43.468C70.7647 44.7131 66.3584 45.0799 62.2178 44.5028H66.4207V12.8536H106.884V12.1806C105.132 17.1958 102.608 21.9064 99.4032 26.1418Z" fill="#F6A3BD"/>
<path d="M99.388 26.1301C92.7223 34.9967 83.95 40.9645 75.1626 43.4445C70.7647 44.6845 66.3669 45.0513 62.2178 44.4792H66.4207V12.8536H106.864V12.1806C105.111 17.1908 102.589 21.8971 99.388 26.1301Z" fill="#F6A2BD"/>
<path d="M99.3712 26.1132C92.7105 34.9766 83.9466 40.941 75.1626 43.4209C70.7698 44.6609 66.3752 45.0277 62.2312 44.454H66.424V12.8536H106.844V12.1806C105.091 17.1851 102.57 21.8857 99.3712 26.1132Z" fill="#F5A1BC"/>
<path d="M99.3545 26.1031C92.6972 34.953 83.9384 40.909 75.1627 43.3923C70.7733 44.6323 66.3787 45.0008 62.2397 44.4271H66.4241V12.8536H106.819V12.1806C105.069 17.1815 102.55 21.8787 99.3545 26.1031Z" fill="#F5A0BB"/>
<path d="M99.3393 26.0897C92.6853 34.9412 83.9349 40.8955 75.1626 43.3721C70.7765 44.6121 66.3837 44.9789 62.248 44.4052H66.424V12.8536H106.799V12.1806C105.05 17.177 102.533 21.8697 99.3393 26.0897Z" fill="#F59FBB"/>
<path d="M99.3226 26.0813C92.6736 34.9244 83.9266 40.877 75.1628 43.3469C70.7767 44.5869 66.3922 44.9554 62.2566 44.3816H66.4242V12.8536H106.772V12.1806C105.025 17.173 102.511 21.8627 99.3226 26.0813Z" fill="#F59EBA"/>
<path d="M99.3074 26.0661C92.6618 34.9042 83.9215 40.8518 75.1627 43.3234C70.7817 44.5633 66.3955 44.9301 62.2683 44.3564H66.4241V12.8536H106.758V12.1671C105.011 17.1591 102.497 21.8483 99.3074 26.0661Z" fill="#F59DB9"/>
<path d="M99.289 26.0527C92.6484 34.884 83.9165 40.8282 75.1611 43.2998C70.7901 44.5347 66.3972 44.9066 62.27 44.3328H66.4225V12.8536H106.735V12.1671C104.989 17.1549 102.477 21.8397 99.289 26.0527Z" fill="#F59CB9"/>
<path d="M99.2738 26.0409C92.6366 34.8689 83.9098 40.808 75.1627 43.2745C70.7917 44.5112 66.4073 44.8779 62.2834 44.3042H66.4241V12.8536H106.715V12.1621C104.97 17.1472 102.46 21.8297 99.2738 26.0409Z" fill="#F59BB8"/>
<path d="M99.2586 26.0291C92.6248 34.852 83.9013 40.7878 75.1626 43.251C70.7916 44.4859 66.4207 44.8544 62.2917 44.2807H66.424V12.8536H106.694V12.1587C104.95 17.1402 102.441 21.8196 99.2586 26.0291Z" fill="#F59AB7"/>
<path d="M99.2419 26.0173C92.6131 34.8318 83.898 40.7626 75.1628 43.2308C70.7918 44.4624 66.4208 44.8292 62.3003 44.2554H66.4242V12.8536H106.671V12.1587C104.928 17.1362 102.422 21.8118 99.2419 26.0173Z" fill="#F499B7"/>
<path d="M99.2266 26.0056C92.6012 34.8117 83.8946 40.739 75.1627 43.2022C70.7917 44.4371 66.4207 44.8022 62.3086 44.2319H66.424V12.8536H106.651V12.1554C104.907 17.129 102.403 21.8014 99.2266 26.0056Z" fill="#F498B6"/>
<path d="M99.2064 25.9921C92.5928 34.7948 83.8861 40.7188 75.166 43.182C70.795 44.4136 66.4358 44.777 62.3203 44.2083H66.4274V12.8536H106.63V12.1503C104.889 17.1219 102.384 21.7917 99.2064 25.9921Z" fill="#F497B5"/>
<path d="M99.1897 25.9803C92.576 34.7746 83.8778 40.6953 75.1627 43.1584C70.8018 44.39 66.4358 44.7534 62.3237 44.1831H66.4241V12.8536H106.604V12.1503C104.864 17.1173 102.363 21.7831 99.1897 25.9803Z" fill="#F496B5"/>
<path d="M99.173 25.9686C92.5694 34.7545 83.8745 40.6751 75.1628 43.1299C70.8053 44.3615 66.4444 44.7249 62.3323 44.1511H66.4242V12.8536H106.585V12.1385C104.848 17.1064 102.348 21.7725 99.173 25.9686Z" fill="#F495B4"/>
<path d="M99.1578 25.9568C92.5525 34.7393 83.8593 40.6499 75.1594 43.1181C70.8052 44.3463 66.4476 44.7131 62.3406 44.1394H66.4241V12.8536H106.565V12.1385C104.827 17.1014 102.328 21.7633 99.1578 25.9568Z" fill="#F494B4"/>
<path d="M99.1409 25.945C92.5441 34.7225 83.8609 40.6263 75.1593 43.0844C70.8102 44.3127 66.456 44.6811 62.3523 44.1074H66.424V12.8536H106.545V12.1385C104.807 17.0972 102.309 21.755 99.1409 25.945Z" fill="#F493B3"/>
<path d="M99.1208 25.9349C92.5273 34.7057 83.8492 40.6095 75.1543 43.0643C70.8085 44.2925 66.4544 44.6593 62.3557 44.0855H66.4191V12.8536H106.518V12.1385C104.782 17.0936 102.287 21.7481 99.1208 25.9349Z" fill="#F492B2"/>
<path d="M99.109 25.9198C92.5206 34.6838 83.8492 40.586 75.1593 43.0373C70.8136 44.2639 66.4644 44.6273 62.3691 44.0586H66.4241V12.8536H106.501V12.1385C104.766 17.0883 102.273 21.7377 99.109 25.9198Z" fill="#F491B2"/>
<path d="M99.0922 25.9046C92.5088 34.667 83.8458 40.5624 75.1593 43.0121C70.8169 44.2353 66.4728 44.6037 62.3826 44.0334H66.4291V12.8536H106.481V12.1385C104.747 17.0833 102.254 21.7276 99.0922 25.9046Z" fill="#F490B1"/>
<path d="M99.077 25.8962C92.4953 34.6451 83.8374 40.5338 75.1593 42.9885C70.8219 44.2117 66.4762 44.5785 62.3826 44.0098H66.4173V12.8536H106.456V12.1268C104.725 17.0722 102.236 21.7177 99.077 25.8962Z" fill="#F48FB1"/>
<path d="M99.0602 25.8794C92.4835 34.6283 83.8289 40.517 75.1592 42.9633C70.8219 44.1882 66.4845 44.5516 62.3926 43.9863H66.4273V12.8536H106.439V12.1268C104.708 17.0669 102.219 21.7069 99.0602 25.8794Z" fill="#F48EB0"/>
<path d="M99.0452 25.871C92.4719 34.6098 83.8257 40.4968 75.1594 42.9431C70.8254 44.1629 66.488 44.5263 62.4011 43.9526H66.4241V12.8536H106.415V12.1217C104.685 17.0592 102.199 21.6976 99.0452 25.871Z" fill="#F48EB0"/>
<path d="M99.0283 25.8558C92.46 34.5929 83.8223 40.4732 75.1593 42.928C70.8304 44.1478 66.4964 44.5112 62.4128 43.9459H66.4241V12.8536H106.392V12.1183C104.664 17.0519 102.18 21.6864 99.0283 25.8558Z" fill="#F38DAF"/>
<path d="M99.0114 25.844C92.4549 34.5728 83.8138 40.448 75.1592 42.896C70.8303 44.1141 66.4996 44.4792 62.4211 43.9055H66.424V12.8536H106.371V12.115C104.646 17.0462 102.162 21.6781 99.0114 25.844Z" fill="#F38CAE"/>
<path d="M98.9913 25.8306C92.4349 34.5576 83.8055 40.4278 75.1594 42.8707C70.8338 44.0905 66.5048 44.454 62.4297 43.8802H66.4241V12.8536H106.35V12.1099C104.626 17.039 102.143 21.6684 98.9913 25.8306Z" fill="#F38BAE"/>
<path d="M98.9761 25.8188C92.4196 34.5374 83.8004 40.4076 75.1593 42.8472C70.837 44.067 66.5131 44.4304 62.438 43.8567H66.424V12.8536H106.328V12.1099C104.606 17.0351 102.126 21.6605 98.9761 25.8188Z" fill="#F38AAD"/>
<path d="M98.9527 25.807C92.4113 34.5155 83.7971 40.384 75.1594 42.822C70.8422 44.0418 66.5166 44.4052 62.4448 43.8314H66.4241V12.8536H106.308V12.1066C104.582 17.0281 102.101 21.6504 98.9527 25.807Z" fill="#F389AD"/>
<path d="M98.9528 25.7953C92.3963 34.5004 83.7888 40.3605 75.1595 42.7984C70.8423 44.0149 66.5201 44.3766 62.4534 43.8079H66.4242V12.8536H106.288V12.1015C104.569 17.0202 102.095 21.6403 98.9528 25.7953Z" fill="#F388AC"/>
<path d="M98.9275 25.7835C92.3878 34.4802 83.7803 40.3403 75.1594 42.7765C70.8456 43.9913 66.5284 44.3547 62.4617 43.786H66.4241V12.8536H106.267V12.1015C104.548 17.0171 102.072 21.6335 98.9275 25.7835Z" fill="#F387AC"/>
<path d="M98.9106 25.7666C92.3743 34.4617 83.7802 40.3117 75.1593 42.7462C70.8505 43.9627 66.5367 44.3261 62.47 43.7557H66.424V12.8536H106.242V12.0981C104.523 17.0082 102.05 21.6198 98.9106 25.7666Z" fill="#F386AB"/>
<path d="M98.8956 25.7666C92.3626 34.4567 83.7736 40.3033 75.1594 42.7345C70.854 43.9492 66.5402 44.3093 62.4785 43.744H66.4242V12.8536H106.222V12.0948C104.506 17.0059 102.034 21.6188 98.8956 25.7666Z" fill="#F385AA"/>
<path d="M98.8787 25.7465C92.3507 34.4281 83.7651 40.2713 75.1593 42.7008C70.8539 43.9173 66.5451 44.2773 62.4851 43.7103H66.424V12.8536H106.198V12.0898C104.484 16.9956 102.014 21.6033 98.8787 25.7465Z" fill="#F384AA"/>
<path d="M98.8635 25.7347C92.3389 34.4079 83.7567 40.2511 75.1593 42.6773C70.8572 43.8887 66.5535 44.2521 62.4985 43.6868H66.424V12.8536H106.182V12.0898C104.466 16.991 101.997 21.5946 98.8635 25.7347Z" fill="#F283A9"/>
<path d="M98.8468 25.7229C92.3273 34.391 83.7534 40.2259 75.1594 42.6537C70.8624 43.8651 66.5569 44.2285 62.5054 43.6632H66.4241V12.8536H106.158V12.0864C104.444 16.9845 101.977 21.5852 98.8468 25.7229Z" fill="#F282A9"/>
<path d="M98.8299 25.7095C92.3188 34.3759 83.7483 40.2057 75.1593 42.6285C70.8623 43.8399 66.5652 44.2033 62.5137 43.638H66.424V12.8536H106.133V12.0814C104.42 16.976 101.957 21.5739 98.8299 25.7095Z" fill="#F282A8"/>
<path d="M98.8149 25.6943C92.3021 34.3557 83.74 40.1821 75.1594 42.6049C70.8658 43.8163 66.5687 44.1746 62.5222 43.6144H66.4242V12.8536H106.113V12.0779C104.402 16.9687 101.94 21.5627 98.8149 25.6943Z" fill="#F281A8"/>
<path d="M98.798 25.6859C92.2936 34.3355 83.7332 40.1552 75.1593 42.5797C70.8707 43.791 66.577 44.1511 62.5305 43.5891H66.4241V12.8536H106.099V12.0779C104.385 16.9653 101.922 21.5561 98.798 25.6859Z" fill="#F280A7"/>
<path d="M98.7847 25.6691C92.2803 34.3187 83.73 40.1384 75.1612 42.5561C70.8726 43.7675 66.5873 44.1276 62.5408 43.5656H66.4259V12.8536H106.069V12.0746C104.362 16.9574 101.904 21.5439 98.7847 25.6691Z" fill="#F27FA7"/>
<path d="M98.766 25.6624C92.2701 34.2985 83.7248 40.1166 75.1543 42.5326C70.8741 43.744 66.5804 44.1024 62.5457 43.5421H66.4241V12.8536H106.049V12.0696C104.341 16.9515 101.884 21.5374 98.766 25.6624Z" fill="#F27EA6"/>
<path d="M98.7492 25.6455C92.2583 34.2783 83.7164 40.093 75.1543 42.5074C70.8774 43.7188 66.5938 44.0788 62.5591 43.5169H66.4257V12.8536H106.029V12.0696C104.319 16.945 101.864 21.5249 98.7492 25.6455Z" fill="#F27DA6"/>
<path d="M98.7342 25.6337C92.2466 34.2632 83.7081 40.0677 75.1544 42.4838C70.8775 43.6952 66.5973 44.0502 62.5659 43.4933H66.4242V12.8536H106.014V12.0662C104.304 16.9386 101.848 21.5157 98.7342 25.6337Z" fill="#F27CA5"/>
<path d="M98.7139 25.622C92.228 34.2464 83.7046 40.0492 75.1543 42.4602C70.8825 43.6666 66.6056 44.0266 62.5742 43.4697H66.4241V12.8536H105.985V12.0612C104.28 16.9321 101.827 21.5073 98.7139 25.622Z" fill="#F27BA5"/>
<path d="M98.6971 25.6085C92.2213 34.2262 83.6996 40.0291 75.161 42.4333C70.8926 43.6413 66.6157 43.9964 62.5894 43.4428H66.4308V12.8536H105.971V12.0612C104.264 16.9275 101.81 21.4981 98.6971 25.6085Z" fill="#F27AA4"/>
<path d="M98.682 25.5984C92.2096 34.2077 83.6929 40.0055 75.1543 42.4232C70.8859 43.6262 66.6174 43.9862 62.5911 43.4327H66.4241V12.8536H105.945V12.0544C104.242 16.9193 101.791 21.4888 98.682 25.5984Z" fill="#F27AA4"/>
<path d="M98.6651 25.5849C92.1977 34.1891 83.6844 39.9802 75.1542 42.3912C70.8908 43.5942 66.6207 43.9543 62.5994 43.3923H66.424V12.8536H105.919V12.0544C104.219 16.9148 101.772 21.48 98.6651 25.5849Z" fill="#F279A3"/>
<path d="M98.6484 25.5732C92.1861 34.174 83.6862 39.9601 75.1543 42.366C70.8943 43.5707 66.6258 43.929 62.6062 43.3755H66.4241V12.8536H105.899V12.0494C104.199 16.9068 101.752 21.4694 98.6484 25.5732Z" fill="#F278A3"/>
<path d="M98.6334 25.5614C92.1727 34.1538 83.6711 39.9399 75.1544 42.3424C70.8978 43.5454 66.6344 43.9004 62.6147 43.3435H66.4242V12.8536H105.879V12.046C104.18 16.9004 101.735 21.4603 98.6334 25.5614Z" fill="#F277A2"/>
<path d="M98.6165 25.5479C92.1609 34.1286 83.6677 39.9163 75.1543 42.3172C70.8977 43.5168 66.6376 43.8769 62.623 43.3267H66.4241V12.8536H105.859V12.046C104.158 16.8948 101.715 21.4498 98.6165 25.5479Z" fill="#F176A2"/>
<path d="M98.6012 25.5362C92.149 34.1168 83.6592 39.8911 75.1542 42.2937C70.9026 43.4933 66.6459 43.8483 62.6313 43.2914H66.424V12.8536H105.835V12.0376C104.138 16.8852 101.697 21.4392 98.6012 25.5362Z" fill="#F175A1"/>
<path d="M98.5846 25.5244C92.1374 34.105 83.656 39.8709 75.1544 42.2701C70.9062 43.468 66.6495 43.8247 62.6433 43.2678H66.4242V12.8536H105.815V12.0376C104.119 16.8815 101.68 21.4316 98.5846 25.5244Z" fill="#F174A1"/>
<path d="M98.5677 25.5126C92.1255 34.0815 83.6525 39.8473 75.1543 42.2449C70.9111 43.4445 66.6578 43.7995 62.6516 43.2426H66.4241V12.8536H105.795V12.0342C104.099 16.8751 101.661 21.4223 98.5677 25.5126Z" fill="#F173A0"/>
<path d="M98.5525 25.5008C92.112 34.0613 83.644 39.8271 75.1542 42.2213C70.911 43.4209 66.6611 43.7759 62.6599 43.219H66.424V12.8536H105.763V12.0292C104.072 16.8668 101.64 21.4117 98.5525 25.5008Z" fill="#F172A0"/>
<path d="M98.5358 25.484C92.1003 34.0445 83.6391 39.8019 75.1543 42.1961C70.9145 43.3957 66.6662 43.7524 62.6667 43.1938H66.4241V12.8536H105.75V12.0292C104.058 16.8619 101.624 21.4012 98.5358 25.484Z" fill="#F1719F"/>
<path d="M98.5205 25.4756C92.0884 34.0243 83.6322 39.7767 75.1525 42.1725C70.916 43.3721 66.6728 43.7271 62.6733 43.1702H66.4223V12.8536H105.728V12.0258C104.035 16.8553 101.604 21.3926 98.5205 25.4756Z" fill="#F1719F"/>
<path d="M98.5005 25.4604C92.0768 34.0074 83.6274 39.7615 75.1544 42.149C70.9179 43.3469 66.678 43.7036 62.6836 43.145H66.4242V12.8536H105.706V12.0208C104.018 16.8489 101.587 21.3835 98.5005 25.4604Z" fill="#F1709E"/>
<path d="M98.4837 25.452C92.06 33.9872 83.6189 39.7312 75.1543 42.1288C70.9229 43.3233 66.6864 43.6783 62.6953 43.1214H66.4241V12.8536H105.686V12.0208C103.997 16.8451 101.567 21.3765 98.4837 25.452Z" fill="#F16F9E"/>
<path d="M98.4667 25.4302C92.0599 33.9721 83.6121 39.7127 75.1542 42.1036C70.9261 43.2948 66.6896 43.6498 62.7036 43.0979H66.424V12.8536H105.665V12.0124C103.979 16.8329 101.55 21.3601 98.4667 25.4302Z" fill="#F16E9D"/>
<path d="M98.4483 25.4302C92.0415 33.9587 83.6038 39.6959 75.151 42.0867C70.9229 43.2779 66.6948 43.6329 62.7104 43.0794H66.4224V12.8536H105.642V12.0124C103.958 16.833 101.531 21.3603 98.4483 25.4302Z" fill="#F16D9D"/>
<path d="M98.435 25.4116C92.0281 33.9317 83.6038 39.669 75.1544 42.0548C70.9313 43.2476 66.7016 43.6026 62.7139 43.0491H66.4124V12.8536H105.622V12.0124C103.936 16.8253 101.512 21.346 98.435 25.4116Z" fill="#F16C9C"/>
<path d="M98.4198 25.3999C92.0197 33.9149 83.5954 39.6488 75.1544 42.0312C70.9347 43.2224 66.7066 43.5774 62.7273 43.0239H66.4258V12.8536H105.597V12.0124C103.914 16.8209 101.493 21.3377 98.4198 25.3999Z" fill="#F16B9C"/>
<path d="M98.4029 25.3864C92.0044 33.8998 83.5869 39.6253 75.1543 42.0077C70.9346 43.1938 66.7149 43.5488 62.7356 43.0003H66.424V12.8536H105.576V12.0124C103.895 16.8166 101.474 21.3288 98.4029 25.3864Z" fill="#F16A9C"/>
<path d="M98.3862 25.3746C91.9978 33.8796 83.5837 39.6 75.1544 41.9824C70.9381 43.1702 66.7184 43.5252 62.7441 42.9768H66.4242V12.8536H105.556V12.0006C103.874 16.8039 101.455 21.3159 98.3862 25.3746Z" fill="#F0699B"/>
<path d="M98.371 25.3629C91.9826 33.8594 83.5768 39.5798 75.1543 41.9589C70.943 43.1366 66.7267 43.5017 62.7524 42.9482H66.4241V12.8536H105.536V11.9972C103.857 16.7984 101.44 21.3079 98.371 25.3629Z" fill="#F0689B"/>
<path d="M98.3541 25.3511C91.9657 33.8426 83.5717 39.5596 75.1542 41.9336C70.9429 43.1215 66.7299 43.4765 62.7607 42.9246H66.424V12.8536H105.509V11.9972C103.832 16.7936 101.418 21.299 98.3541 25.3511Z" fill="#F0689A"/>
<path d="M98.339 25.3393C91.9507 33.8224 83.5668 39.5361 75.1543 41.91C70.9514 43.0979 66.7385 43.4529 62.7676 42.8993H66.4241V12.8536H105.492V11.9938C103.814 16.7868 101.401 21.2892 98.339 25.3393Z" fill="#F0679A"/>
<path d="M98.3222 25.3258C91.9473 33.8055 83.5583 39.5125 75.1543 41.8865C70.9514 43.0727 66.7485 43.4243 62.781 42.8708H66.4241V12.8536H105.472V11.9888C103.794 16.7786 101.382 21.278 98.3222 25.3258Z" fill="#F06699"/>
<path d="M98.3055 25.3141C91.9356 33.7854 83.5551 39.4923 75.1544 41.8613C70.9515 43.0491 66.7486 43.4007 62.7878 42.8506H66.4242V12.8536H105.452V11.9888C103.774 16.7744 101.363 21.2699 98.3055 25.3141Z" fill="#F06599"/>
<path d="M98.2903 25.3023C91.9238 33.7702 83.5466 39.4671 75.1543 41.8377C70.9514 43.0155 66.7485 43.3755 62.7961 42.822H66.4241V12.8536H105.427V11.9854C103.752 16.7676 101.344 21.2602 98.2903 25.3023Z" fill="#F06498"/>
<path d="M98.2802 25.2905C91.917 33.75 83.5449 39.4469 75.161 41.8141C70.9581 42.9919 66.7653 43.3469 62.8113 42.7984H66.4308V12.8536H105.407V11.9804C103.735 16.7602 101.331 21.2506 98.2802 25.2905Z" fill="#F06398"/>
<path d="M98.2584 25.2737C91.8986 33.7298 83.5348 39.4233 75.1543 41.7889C70.9632 42.9767 66.7671 43.3233 62.813 42.7748H66.4241V12.8536H105.386V11.9804C103.713 16.7542 101.308 21.2388 98.2584 25.2737Z" fill="#F06298"/>
<path d="M98.2415 25.2619C91.8867 33.7096 83.5314 39.3947 75.1542 41.762C70.9665 42.9397 66.7703 43.2964 62.8213 42.7462H66.424V12.8536H105.363V11.9703C103.693 16.7439 101.29 21.2281 98.2415 25.2619Z" fill="#F06197"/>
<path d="M98.2214 25.2501C91.875 33.6979 83.5231 39.383 75.1543 41.7384C70.9666 42.9162 66.7788 43.2729 62.8281 42.7244H66.4241V12.8536H105.341V11.9703C103.673 16.7407 101.271 21.2212 98.2214 25.2501Z" fill="#F06097"/>
<path d="M98.2045 25.2383C91.8632 33.6743 83.5147 39.3577 75.1509 41.7166C70.9716 42.8943 66.7822 43.251 62.8416 42.7008H66.4241V12.8536H105.323V11.9703C103.654 16.7365 101.252 21.2129 98.2045 25.2383Z" fill="#F05F96"/>
<path d="M98.1894 25.2249C91.8498 33.6575 83.5113 39.3342 75.1576 41.693C70.9783 42.8707 66.7939 43.2257 62.855 42.6773H66.4308V12.8536H105.302V11.9703C103.633 16.731 101.233 21.2028 98.1894 25.2249Z" fill="#F05F96"/>
<path d="M98.1726 25.2131C91.838 33.6406 83.5063 39.3106 75.1509 41.6678C70.975 42.8455 66.7956 43.2022 62.8567 42.6537H66.4241V12.8536H105.279V11.9703C103.612 16.727 101.214 21.1949 98.1726 25.2131Z" fill="#F05E95"/>
<path d="M98.1574 25.2013C91.8262 33.6238 83.4978 39.2888 75.1508 41.6442C70.9782 42.822 66.7989 43.1736 62.865 42.6285H66.424V12.8536H105.259V11.9602C103.593 16.7164 101.198 21.1838 98.1574 25.2013Z" fill="#F05D95"/>
<path d="M98.1408 25.1896C91.8146 33.602 83.4946 39.2703 75.1511 41.619C70.9835 42.7967 66.8075 43.1501 62.8787 42.6049H66.4293V12.8536H105.239V11.9568C103.573 16.7097 101.179 21.1741 98.1408 25.1896Z" fill="#F05C95"/>
<path d="M98.124 25.1778C91.8029 33.5902 83.4862 39.245 75.1511 41.5988C70.9835 42.7766 66.8109 43.1265 62.8787 42.5797H66.4208V12.8536H105.213V11.9568C103.551 16.7055 101.159 21.1659 98.124 25.1778Z" fill="#F05B94"/>
<path d="M98.1122 25.1643C91.7928 33.5767 83.4862 39.2215 75.1544 41.5753C70.9902 42.753 66.8226 43.0895 62.8921 42.5528H66.4225V12.8536H105.193V11.9484C103.533 16.6949 101.144 21.1537 98.1122 25.1643Z" fill="#F05A94"/>
<path d="M98.0919 25.1525C91.7775 33.5515 83.4743 39.2013 75.1509 41.55C70.9917 42.7278 66.8225 43.0727 62.897 42.5275H66.4274V12.8536H105.173V11.9484C103.511 16.6907 101.122 21.1453 98.0919 25.1525Z" fill="#EF5993"/>
<path d="M98.0769 25.1408C91.7658 33.5313 83.471 39.1811 75.151 41.5265C70.9919 42.7042 66.8276 43.0491 62.9055 42.504H66.4242V12.8536H105.149V11.9451C103.49 16.6842 101.104 21.1361 98.0769 25.1408Z" fill="#EF5893"/>
<path d="M98.06 25.129C91.754 33.5111 83.4625 39.1558 75.1509 41.5029C70.9951 42.6806 66.8359 43.0171 62.9138 42.4804H66.4241V12.8536H105.129V11.94C103.472 16.6773 101.087 21.127 98.06 25.129Z" fill="#EF5793"/>
<path d="M98.0433 25.1172C91.7457 33.496 83.4576 39.1323 75.1511 41.4777C70.9986 42.6554 66.8394 43.0003 62.9224 42.4552H66.4242V12.8536H105.109V11.94C103.449 16.6719 101.066 21.1172 98.0433 25.1172Z" fill="#EF5792"/>
<path d="M98.0281 25.1037C91.7288 33.4758 83.4508 39.1121 75.151 41.4541C70.9986 42.6318 66.8478 42.9683 62.9341 42.4316H66.4242V12.8536H105.091V11.9366C103.435 16.6667 101.053 21.1092 98.0281 25.1037Z" fill="#EF5692"/>
<path d="M98.008 25.0937C91.7221 33.4606 83.4458 39.0936 75.1443 41.4322C70.9969 42.61 66.8445 42.9465 62.9358 42.4047H66.4175V12.8536H105.064V11.9333C103.411 16.6612 101.031 21.1016 98.008 25.0937Z" fill="#EF5592"/>
<path d="M97.9911 25.0802C91.7087 33.4388 83.4374 39.0684 75.151 41.4003C71.007 42.578 66.8596 42.9145 62.9492 42.3728H66.4242V12.8536H105.044V11.9333C103.389 16.6554 101.01 21.0908 97.9911 25.0802Z" fill="#EF5491"/>
<path d="M97.9759 25.0634C91.6968 33.4219 83.4339 39.0431 75.1509 41.3834C71.0119 42.5511 66.8628 42.8977 62.9575 42.3526H66.4241V12.8536H105.02V11.9249C103.371 16.6451 100.994 21.0781 97.9759 25.0634Z" fill="#EF5391"/>
<path d="M97.9592 25.0566C91.6852 33.4018 83.4257 39.0212 75.151 41.3616C71.0121 42.5275 66.868 42.8758 62.9661 42.3307H66.4242V12.8536H105.005V11.9249C103.353 16.6421 100.976 21.0726 97.9592 25.0566Z" fill="#EF5290"/>
<path d="M97.944 25.0398C91.675 33.3815 83.4239 39.0044 75.1526 41.333C71.017 42.4989 66.878 42.8472 62.9761 42.3054H66.4258V12.8536H104.98V11.9198C103.332 16.6334 100.958 21.0602 97.944 25.0398Z" fill="#EF5190"/>
<path d="M97.9271 25.028C91.6615 33.3664 83.4137 38.9792 75.1509 41.3094C71.0186 42.4754 66.8796 42.8236 62.9861 42.2819H66.424V12.8536H104.956V11.9164C103.31 16.627 100.939 21.051 97.9271 25.028Z" fill="#EF5090"/>
<path d="M97.9104 25.0162C91.6482 33.3496 83.4105 38.9539 75.151 41.2875C71.0188 42.4518 66.8882 42.8018 62.9946 42.2566H66.4242V12.8536H104.936V11.9164C103.287 16.6212 100.917 21.0406 97.9104 25.0162Z" fill="#EF4F8F"/>
<path d="M97.8952 25.0028C91.6363 33.3378 83.402 38.9304 75.1509 41.264C71.0237 42.4266 66.8914 42.7782 63.0029 42.2331H66.4241V12.8536H104.922V11.9131C103.275 16.6156 100.904 21.032 97.8952 25.0028Z" fill="#EF4F8F"/>
<path d="M97.8785 24.991C91.6246 33.3092 83.3971 38.9102 75.151 41.2404C71.0272 42.403 66.8999 42.7546 63.0098 42.2095H66.4242V12.8536H104.891V11.908C103.247 16.6074 100.881 21.0215 97.8785 24.991Z" fill="#EF4E8F"/>
<path d="M97.8616 24.9792C91.6128 33.2941 83.3903 38.89 75.1509 41.2152C71.0321 42.3778 66.9032 42.7294 63.0181 42.1843H66.4241V12.8536H104.87V11.908C103.226 16.6028 100.862 21.0127 97.8616 24.9792Z" fill="#EF4D8E"/>
<path d="M97.8464 24.9675C91.601 33.2739 83.3885 38.8665 75.1509 41.1917C71.0371 42.3543 66.9133 42.6975 63.0315 42.1608H66.4291V12.8536H104.85V11.9047C103.208 16.5965 100.845 21.0036 97.8464 24.9675Z" fill="#EF4C8E"/>
<path d="M97.8296 24.9557C91.5874 33.257 83.3717 38.8412 75.1458 41.1681C71.0354 42.3306 66.9166 42.6823 63.0415 42.1372H66.4307V12.8536H104.827V11.8996C103.185 16.5886 100.825 20.9933 97.8296 24.9557Z" fill="#EF4B8E"/>
<path d="M97.8144 24.9422C91.5757 33.2369 83.3733 38.821 75.1458 41.1429C71.0387 42.3021 66.9199 42.6453 63.0415 42.1086H66.4223V12.8536H104.806V11.8963C103.166 16.5815 100.807 20.9827 97.8144 24.9422Z" fill="#EF4A8D"/>
<path d="M97.7978 24.9254C91.5641 33.215 83.3651 38.7924 75.1459 41.1143C71.0389 42.2735 66.9285 42.615 63.05 42.0783H66.4241V12.8536H104.786V11.8929C103.147 16.5737 100.789 20.9705 97.7978 24.9254Z" fill="#EF498D"/>
<path d="M97.7759 24.9254C91.5556 33.2066 83.3566 38.784 75.1409 41.1008C71.0456 42.255 66.9318 42.5915 63.0635 42.0598H66.4258V12.8536H104.756V11.8929C103.12 16.5738 100.765 20.9708 97.7759 24.9254Z" fill="#EE488D"/>
<path d="M97.7657 24.9069C91.5454 33.1797 83.3532 38.752 75.1458 41.0705C71.0471 42.2297 66.9401 42.573 63.0701 42.0362H66.424V12.8536H104.741V11.8878C103.105 16.5637 100.752 20.9561 97.7657 24.9069Z" fill="#EE478C"/>
<path d="M97.749 24.8951C91.5287 33.1645 83.3499 38.7319 75.1459 41.047C71.0473 42.2011 66.9436 42.5477 63.0786 42.0076H66.4241V12.8536H104.721V11.8845C103.086 16.5573 100.734 20.9468 97.749 24.8951Z" fill="#EE478C"/>
<path d="M97.7287 24.8783C91.5084 33.1477 83.3414 38.7083 75.1458 41.0217C71.0522 42.1759 66.9485 42.5242 63.0869 41.9875H66.424V12.8536H104.7V11.8795C103.068 16.5496 100.715 20.9356 97.7287 24.8783Z" fill="#EE468C"/>
<path d="M97.7137 24.8699C91.5035 33.1275 83.3365 38.6881 75.1459 40.9981C71.0557 42.1523 66.9571 42.4989 63.0955 41.9588H66.4241V12.8536H104.677V11.8761C103.047 16.544 100.697 20.9282 97.7137 24.8699Z" fill="#EE458B"/>
<path d="M97.6968 24.8547C91.4917 33.1073 83.3297 38.6646 75.1458 40.9729C71.0556 42.1288 66.9603 42.4754 63.1038 41.9336H66.424V12.8536H104.657V11.8761C103.025 16.5381 100.677 20.9169 97.6968 24.8547Z" fill="#EE448B"/>
<path d="M97.68 24.8463C91.4799 33.0905 83.3246 38.6427 75.1525 40.9494C71.0657 42.1035 66.9754 42.4468 63.1172 41.9101H66.4307V12.8536H104.643V11.8761C103.01 16.5354 100.66 20.9113 97.68 24.8463Z" fill="#EE438B"/>
<path d="M97.665 24.8295C91.4716 33.0737 83.3163 38.6258 75.1375 40.9258C71.0557 42.08 66.9638 42.4232 63.1106 41.8865H66.4157V12.8536H104.617V11.8676C102.987 16.5236 100.641 20.8967 97.665 24.8295Z" fill="#EE428B"/>
<path d="M97.6482 24.8177C91.4549 33.0551 83.3181 38.5989 75.146 40.909C71.0642 42.0632 66.9807 42.4081 63.1309 41.8697H66.4242V12.8536H104.586V11.8676C102.96 16.519 100.62 20.8882 97.6482 24.8177Z" fill="#EE418A"/>
<path d="M97.633 24.8059C91.4464 33.035 83.3046 38.5754 75.1459 40.877C71.0675 42.0312 66.984 42.3711 63.1392 41.8377H66.4241V12.8536H104.573V11.8643C102.945 16.5126 100.604 20.8789 97.633 24.8059Z" fill="#EE408A"/>
<path d="M97.6161 24.7942C91.4311 33.0181 83.3011 38.5535 75.1458 40.8518C71.0724 42.0077 66.9889 42.3458 63.1475 41.8142H66.424V12.8536H104.553V11.8593C102.925 16.5048 100.584 20.8686 97.6161 24.7942Z" fill="#EE408A"/>
<path d="M97.6077 24.7807C91.4312 33.003 83.3011 38.53 75.1543 40.8316C71.0808 41.9824 67.0057 42.3223 63.1643 41.7889H66.4325V12.8536H104.527V11.8593C102.905 16.4997 100.57 20.859 97.6077 24.7807Z" fill="#EE3F89"/>
<path d="M97.5842 24.7689C91.411 32.9828 83.2944 38.5097 75.1459 40.808C71.0758 41.9588 67.0007 42.2987 63.1643 41.7653H66.4241V12.8536H104.5V11.8559C102.88 16.4939 100.546 20.8506 97.5842 24.7689Z" fill="#EE3E89"/>
<path d="M97.5675 24.7571C91.3993 32.9626 83.2777 38.4862 75.146 40.7845C71.0793 41.9302 67.0092 42.2735 63.1711 41.7401H66.4242V12.8536H104.487V11.8525C102.864 16.4875 100.53 20.8413 97.5675 24.7571Z" fill="#EE3D89"/>
<path d="M97.5522 24.7454C91.3858 32.9458 83.2759 38.4626 75.1459 40.7592C71.0842 41.9067 67.0125 42.2499 63.1794 41.7166H66.4241V12.8536H104.463V11.8441C102.843 16.4775 100.511 20.8301 97.5522 24.7454Z" fill="#EE3C89"/>
<path d="M97.5356 24.7336C91.3742 32.9256 83.2693 38.4424 75.146 40.7357C71.0844 41.8781 67.021 42.2213 63.188 41.688H66.4242V12.8536H104.443V11.8441C102.824 16.4737 100.493 20.8224 97.5356 24.7336Z" fill="#EE3B88"/>
<path d="M97.5153 24.7201C91.3623 32.9054 83.2642 38.4223 75.1459 40.7037C71.0876 41.8512 67.0243 42.1893 63.1963 41.6577H66.4241V12.8536H104.418V11.8441C102.799 16.4687 100.47 20.8128 97.5153 24.7201Z" fill="#EE3B88"/>
<path d="M97.4986 24.7083C91.3506 32.8903 83.2559 38.397 75.1393 40.6919C71.086 41.8343 67.0227 42.1776 63.2031 41.6442H66.4192V12.8536H104.398V11.8441C102.781 16.4653 100.453 20.8056 97.4986 24.7083Z" fill="#EE3A88"/>
<path d="M97.4833 24.6966C91.3387 32.8734 83.2524 38.3735 75.1459 40.6633C71.096 41.8057 67.0377 42.1439 63.2097 41.6156H66.4173V12.8536H104.378V11.8441C102.762 16.4611 100.436 20.7975 97.4833 24.6966Z" fill="#EE3988"/>
<path d="M97.4665 24.6848C91.3253 32.8532 83.244 38.3533 75.1459 40.6381C71.096 41.7805 67.0411 42.1204 63.2249 41.5904H66.419V12.8536H104.358V11.8441C102.741 16.4564 100.416 20.7885 97.4665 24.6848Z" fill="#EE3887"/>
<path d="M97.4515 24.668C91.3136 32.8331 83.2407 38.3331 75.146 40.6146C71.0995 41.757 67.0496 42.0968 63.2317 41.5668H66.4259V12.8536H104.332V11.8323C102.722 16.4438 100.4 20.7748 97.4515 24.668Z" fill="#EE3787"/>
<path d="M97.4397 24.6596C91.3069 32.8163 83.2374 38.3079 75.151 40.5893C71.1163 41.7317 67.058 42.0716 63.2451 41.5433H66.4292V12.8536H104.314V11.8273C102.701 16.4356 100.382 20.7648 97.4397 24.6596Z" fill="#EE3687"/>
<path d="M97.4179 24.6445C91.2901 32.8011 83.229 38.2843 75.146 40.5691C71.1113 41.7082 67.0614 42.048 63.2485 41.5181H66.4242V12.8536H104.294V11.8273C102.683 16.4319 100.363 20.7564 97.4179 24.6445Z" fill="#EE3587"/>
<path d="M97.4027 24.636C91.2783 32.7809 83.2205 38.2641 75.1459 40.5422C71.1112 41.6846 67.0646 42.0228 63.2568 41.4911H66.4241V12.8536H104.27V11.8239C102.658 16.4249 100.341 20.7472 97.4027 24.636Z" fill="#EE3486"/>
<path d="M97.3858 24.6192C91.2647 32.7607 83.2154 38.2389 75.1458 40.517C71.1111 41.6594 67.0763 41.9992 63.2651 41.4659H66.424V12.8536H104.25V11.8189C102.639 16.4159 100.323 20.7343 97.3858 24.6192Z" fill="#EE3386"/>
<path d="M97.3708 24.6074C91.253 32.7439 83.2087 38.2204 75.1459 40.4934C71.1112 41.6324 67.0764 41.9706 63.272 41.4423H66.4241V12.8536H104.23V11.8155C102.621 16.41 100.307 20.7257 97.3708 24.6074Z" fill="#EE3286"/>
<path d="M97.3539 24.5889C91.2412 32.717 83.2037 38.1884 75.1459 40.4665C71.1112 41.6005 67.0764 41.9403 63.2854 41.4104H66.4241V12.8536H104.205V11.8121C102.599 16.4016 100.287 20.7124 97.3539 24.5889Z" fill="#EE3286"/>
<path d="M97.3372 24.5889C91.2296 32.7136 83.1954 38.1766 75.146 40.453C71.1197 41.5887 67.09 41.9269 63.2922 41.3986H66.4242V12.8536H104.185V11.8121C102.578 16.4008 100.268 20.7114 97.3372 24.5889Z" fill="#EE3185"/>
<path d="M97.322 24.5721C91.2177 32.6884 83.2003 38.1514 75.1459 40.4244C71.1196 41.5584 67.0932 41.8949 63.3005 41.37H66.4241V12.8536H104.164V11.802C102.56 16.3883 100.251 20.6966 97.322 24.5721Z" fill="#EE3085"/>
<path d="M97.3053 24.5586C91.2044 32.6648 83.1836 38.1312 75.1461 40.4042C71.1247 41.5332 67.1018 41.873 63.3091 41.3481H66.4243V12.8536H104.141V11.802C102.539 16.3842 100.233 20.6881 97.3053 24.5586Z" fill="#EE2F85"/>
<path d="M97.2901 24.5468C91.1976 32.6514 83.1802 38.106 75.146 40.3756C71.128 41.5063 67.105 41.8461 63.3174 41.3212H66.4242V12.8536H104.121V11.802C102.519 16.3795 100.214 20.6793 97.2901 24.5468Z" fill="#ED2E85"/>
<path d="M97.2714 24.5351C91.179 32.6312 83.17 38.0824 75.1441 40.3504C71.1262 41.481 67.1082 41.8192 63.324 41.2943H66.4223V12.8536H104.1V11.802C102.497 16.3749 100.193 20.6706 97.2714 24.5351Z" fill="#ED2D84"/>
<path d="M97.2564 24.5233C91.1724 32.6143 83.1684 38.0622 75.1426 40.3268C71.1331 41.4575 67.1185 41.7973 63.3325 41.2724H66.4242V12.8536H104.082V11.802C102.48 16.3713 100.178 20.6631 97.2564 24.5233Z" fill="#ED2C84"/>
<path d="M97.2362 24.5115C91.1571 32.5992 83.1599 38.0488 75.1425 40.3033C71.1363 41.4339 67.1217 41.7738 63.3408 41.2488H66.424V12.8536H104.055V11.802C102.456 16.3677 100.156 20.6558 97.2362 24.5115Z" fill="#ED2B84"/>
<path d="M97.221 24.498C91.1487 32.574 83.1548 38.0185 75.1424 40.2797C71.1396 41.4087 67.1301 41.7452 63.3525 41.2202H66.424V12.8536H104.035V11.7869C102.438 16.3527 100.139 20.6413 97.221 24.498Z" fill="#ED2A84"/>
<path d="M97.2043 24.4863C91.137 32.5622 83.1482 37.9932 75.1426 40.2545C71.1398 41.3851 67.1336 41.7199 63.3611 41.195H66.4241V12.8536H104.015V11.7869C102.418 16.3486 100.12 20.6332 97.2043 24.4863Z" fill="#ED2984"/>
<path d="M97.1892 24.4745C91.1236 32.5504 83.1432 37.973 75.1426 40.2309C71.1448 41.3615 67.142 41.6964 63.3745 41.1714H66.4292V12.8536H103.996V11.7835C102.4 16.3421 100.103 20.6238 97.1892 24.4745Z" fill="#ED2883"/>
<path d="M97.1725 24.4577C91.1203 32.5336 83.1349 37.9529 75.1494 40.2057C71.155 41.3363 67.1522 41.6678 63.3813 41.1462H66.4276V12.8536H103.971V11.7785C102.377 16.3328 100.083 20.6105 97.1725 24.4577Z" fill="#ED2883"/>
<path d="M97.1555 24.451C91.1034 32.5067 83.1313 37.9293 75.1425 40.1822C71.1531 41.3128 67.1503 41.6442 63.3862 41.1227H66.4241V12.8536H103.951V11.7785C102.357 16.3304 100.065 20.6059 97.1555 24.451Z" fill="#ED2783"/>
<path d="M97.1405 24.4341C91.0883 32.4865 83.123 37.9041 75.1426 40.1586C71.1533 41.2876 67.1588 41.619 63.3931 41.0941H66.4191V12.8536H103.926V11.7751C102.335 16.3219 100.045 20.5927 97.1405 24.4341Z" fill="#ED2683"/>
<path d="M97.1236 24.4207C91.0714 32.4646 83.1196 37.8805 75.1425 40.1283C71.1565 41.2556 67.1621 41.5904 63.4014 41.0655H66.4274V12.8536H103.917V11.7718C102.321 16.3148 100.029 20.5821 97.1236 24.4207Z" fill="#ED2583"/>
<path d="M97.1035 24.4106C91.0514 32.4495 83.1062 37.8603 75.1376 40.1098C71.1549 41.2354 67.1656 41.5719 63.4082 41.047H66.4191V12.8536H103.887V11.7718C102.295 16.3115 100.006 20.5755 97.1035 24.4106Z" fill="#ED2482"/>
<path d="M97.0917 24.3971C91.0513 32.4293 83.1079 37.8402 75.1426 40.0846C71.16 41.2068 67.174 41.5467 63.4216 41.0217H66.4242V12.8536H103.867V11.7667C102.276 16.3029 99.9907 20.564 97.0917 24.3971Z" fill="#ED2382"/>
<path d="M97.0748 24.3853C91.0395 32.4125 83.0994 37.8166 75.1425 40.0678C71.1649 41.1933 67.1823 41.5298 63.4299 41.0049H66.4241V12.8536H103.841V11.7634C102.257 16.2978 99.9737 20.5566 97.0748 24.3853Z" fill="#ED2282"/>
<path d="M97.0598 24.3736C91.0278 32.3973 83.0945 37.7913 75.1426 40.0358C71.1684 41.1597 67.1858 41.4945 63.4385 40.9729H66.4242V12.8536H103.828V11.7583C102.241 16.29 99.9575 20.5462 97.0598 24.3736Z" fill="#ED2182"/>
<path d="M97.0429 24.3618C91.016 32.3771 83.0893 37.7712 75.1425 40.0089C71.1683 41.1311 67.1907 41.4659 63.4468 40.946H66.4241V12.8536H103.801V11.7549C102.217 16.2831 99.9365 20.5365 97.0429 24.3618Z" fill="#ED2082"/>
<path d="M97.0228 24.35C91.0026 32.3569 83.0827 37.751 75.1427 39.9971C71.1735 41.1159 67.1992 41.4508 63.4536 40.9309H66.4242V12.8536H103.778V11.7549C102.194 16.2791 99.9148 20.5285 97.0228 24.35Z" fill="#ED1F82"/>
<path d="M97.0076 24.3365C90.9907 32.3401 83.0742 37.7274 75.1425 39.9634C71.1767 41.0856 67.2025 41.4171 63.4619 40.9006H66.4241V12.8536H103.757V11.7516C102.175 16.2724 99.8978 20.5184 97.0076 24.3365Z" fill="#ED1E81"/>
<path d="M96.9908 24.3248C90.979 32.325 83.0709 37.7022 75.1359 39.9432C71.17 41.0621 67.2042 41.3935 63.4636 40.877H66.4174V12.8536H103.739V11.7465C102.156 16.2647 99.8796 20.5084 96.9908 24.3248Z" fill="#ED1D81"/>
<path d="M96.974 24.313C90.9672 32.3048 83.0625 37.682 75.1426 39.9197C71.1801 41.0385 67.2143 41.37 63.4788 40.8518H66.4241V12.8536H103.712V11.7465C102.132 16.2601 99.8584 20.4998 96.974 24.313Z" fill="#ED1C81"/>
<path d="M96.9588 24.3012C90.9554 32.2846 83.059 37.6618 75.1425 39.8995C71.185 41.0167 67.2226 41.3481 63.4871 40.8265H66.424V12.8536H103.692V11.7381C102.113 16.2502 99.8411 20.4886 96.9588 24.3012Z" fill="#ED1B81"/>
<path d="M96.9353 24.2894C90.9353 32.2677 83.044 37.6382 75.1358 39.8709C71.1784 40.9897 67.2193 41.3212 63.4922 40.8047H66.4174V12.8536H103.672V11.7381C102.092 16.2471 99.8194 20.4818 96.9353 24.2894Z" fill="#ED1A81"/>
<path d="M96.9352 24.276C90.9386 32.2509 83.0556 37.6147 75.1509 39.8473C71.1968 40.9645 67.2394 41.2959 63.5156 40.7794H66.4324V12.8536H103.648V11.7381C102.075 16.2411 99.8102 20.4712 96.9352 24.276Z" fill="#ED1981"/>
<path d="M96.91 24.2642C90.9183 32.2307 83.0388 37.5945 75.1424 39.8221C71.1934 40.9376 67.241 41.2673 63.5139 40.7508H66.424V12.8536H103.628V11.7314C102.051 16.2322 99.7849 20.4604 96.91 24.2642Z" fill="#ED1881"/>
<path d="M96.8933 24.2524C90.9067 32.2139 83.0339 37.5776 75.1392 39.8019C71.1936 40.9157 67.2378 41.2471 63.5225 40.7306H66.4241V12.8536H103.608V11.7314C102.034 16.229 99.7682 20.4534 96.8933 24.2524Z" fill="#ED1781"/>
<path d="M96.8781 24.2406C90.8982 32.1954 83.0271 37.5491 75.1425 39.775C71.1968 40.8888 67.2511 41.2202 63.5308 40.7037H66.424V12.8536H103.577V11.7263C102.007 16.2204 99.7465 20.4423 96.8781 24.2406Z" fill="#ED1780"/>
<path d="M96.8614 24.2238C90.8815 32.1752 83.0222 37.5255 75.1392 39.7548C71.2003 40.8653 67.2546 41.195 63.5393 40.6785H66.4242V12.8536H103.564V11.723C101.992 16.213 99.7306 20.4305 96.8614 24.2238Z" fill="#ED1680"/>
<path d="M96.8463 24.2154C90.8832 32.1601 83.0138 37.5054 75.1392 39.7313C71.2054 40.8417 67.2631 41.1698 63.5393 40.6566H66.4158V12.8536H103.536V11.723C101.966 16.2088 99.7092 20.4232 96.8463 24.2154Z" fill="#ED1580"/>
<path d="M96.8293 24.2002C90.8612 32.1382 83.0102 37.4801 75.1424 39.706C71.2085 40.8114 67.2696 41.1428 63.5576 40.6263H66.4273V12.8536H103.519V11.7179C101.952 16.2018 99.6948 20.4133 96.8293 24.2002Z" fill="#ED1480"/>
<path d="M96.8126 24.1885C90.8496 32.1231 83.002 37.4599 75.1392 39.6808C71.2087 40.7879 67.2714 41.1193 63.5679 40.6028H66.4258V12.8536H103.492V11.7146C101.928 16.1951 99.6742 20.4038 96.8126 24.1885Z" fill="#ED1380"/>
<path d="M96.7974 24.175C90.8377 32.1029 82.9985 37.4364 75.1391 39.6539C71.2136 40.7626 67.2797 41.0941 63.5745 40.5725H66.424V12.8536H103.478V11.7146C101.911 16.1899 99.657 20.3937 96.7974 24.175Z" fill="#ED1280"/>
<path d="M96.7807 24.1632C90.8261 32.0827 82.9953 37.4162 75.1392 39.6337C71.2138 40.7407 67.2832 41.0772 63.583 40.554H66.4242V12.8536H103.458V11.7061C101.891 16.1799 99.6384 20.3824 96.7807 24.1632Z" fill="#ED1180"/>
<path d="M96.7672 24.1515C90.8159 32.0591 82.9817 37.3926 75.1408 39.6084C71.2187 40.7155 67.2932 41.047 63.593 40.5288H66.4258V12.8536H103.435V11.7061C101.871 16.1756 99.6211 20.3742 96.7672 24.1515Z" fill="#ED1080"/>
<path d="M96.7454 24.1397C90.8009 32.0474 82.9785 37.3724 75.1393 39.5849C71.2205 40.6903 67.295 41.0217 63.5999 40.5052H66.4242V12.8536H103.41V11.7028C101.847 16.1695 99.5984 20.3654 96.7454 24.1397Z" fill="#ED0F80"/>
<path d="M96.7285 24.1279C90.789 32.0356 82.9733 37.3472 75.1392 39.5596C71.2254 40.6667 67.3033 40.9931 63.6082 40.4816H66.4241V12.8536H103.394V11.6977C101.833 16.1632 99.5836 20.3572 96.7285 24.1279Z" fill="#ED0E7F"/>
<path d="M96.7118 24.1144C90.7773 32.0086 82.9667 37.327 75.1393 39.5361C71.2256 40.6415 67.3068 40.9695 63.615 40.4564H66.4242V12.8536H103.369V11.6977C101.81 16.1584 99.5636 20.3478 96.7118 24.1144Z" fill="#ED0D7F"/>
<path d="M96.6966 24.1027C90.7655 31.9935 82.9616 37.3034 75.1392 39.5125C71.2288 40.6179 67.3117 40.9443 63.6233 40.4328H66.4241V12.8536H103.349V11.6944C101.789 16.1511 99.5444 20.3374 96.6966 24.1027Z" fill="#ED0C7F"/>
<path d="M96.6799 24.0842C90.7538 31.9666 82.9533 37.2765 75.1393 39.4806C71.234 40.5826 67.3203 40.9107 63.6318 40.4009H66.4242V12.8536H103.324V11.691C101.766 16.1423 99.5242 20.3235 96.6799 24.0842Z" fill="#ED0B7F"/>
<path d="M96.6646 24.0842C90.7402 31.9615 82.9498 37.263 75.1459 39.4688C71.2405 40.5708 67.3302 40.8972 63.6501 40.3891H66.4308V12.8536H103.315V11.6859C101.755 16.1393 99.5115 20.3222 96.6646 24.0842Z" fill="#ED0A7F"/>
<path d="M96.6478 24.0673C90.7285 31.9363 82.9414 37.2344 75.1392 39.4385C71.2372 40.5422 67.3319 40.8686 63.6519 40.3554H66.4241V12.8536H103.285V11.6758C101.73 16.1265 99.4904 20.3073 96.6478 24.0673Z" fill="#ED097F"/>
<path d="M96.6311 24.0539C90.7152 31.9211 82.9382 37.2075 75.1393 39.4149C71.2407 40.5169 67.3354 40.845 63.6604 40.3352H66.4242V12.8536H103.265V11.6758C101.711 16.1221 99.4724 20.2984 96.6311 24.0539Z" fill="#ED087F"/>
<path d="M96.6159 24.0387C90.705 31.901 82.9296 37.194 75.1392 39.3914C71.2406 40.4883 67.3437 40.8198 63.6687 40.3066H66.4241V12.8536H103.241V11.6758C101.688 16.1164 99.453 20.2874 96.6159 24.0387Z" fill="#ED077F"/>
<path d="M96.5992 24.0303C90.6933 31.8808 82.9264 37.1705 75.1393 39.3661C71.2458 40.4648 67.3472 40.7912 63.6755 40.2831H66.4242V12.8536H103.221V11.6758C101.669 16.1134 99.4347 20.2816 96.5992 24.0303Z" fill="#ED077F"/>
<path d="M96.584 24.0135C90.6798 31.8639 82.9179 37.1453 75.1392 39.3426C71.249 40.4412 67.3521 40.7676 63.6838 40.2578H66.4241V12.8536H103.201V11.6758C101.649 16.1073 99.4163 20.2697 96.584 24.0135Z" fill="#ED067F"/>
<path d="M96.567 24.0017C90.6679 31.8471 82.9127 37.1251 75.1391 39.3123C71.2489 40.411 67.3604 40.739 63.6921 40.2292H66.424V12.8536H103.181V11.6758C101.628 16.1027 99.3966 20.261 96.567 24.0017Z" fill="#ED057F"/>
<path d="M96.5502 23.99C90.6561 31.827 82.906 37.1015 75.1391 39.3005C71.254 40.3992 67.3638 40.7256 63.7073 40.2124H66.4274V12.8536H103.155V11.6658C101.607 16.0923 99.3784 20.2503 96.5502 23.99Z" fill="#ED057F"/>
<path d="M96.5301 23.9782C90.646 31.8068 82.901 37.0813 75.1391 39.2703C71.2573 40.3672 67.3722 40.6953 63.7073 40.1855H66.419V12.8536H103.135V11.6658C101.585 16.0881 99.357 20.242 96.5301 23.9782Z" fill="#ED047F"/>
<path d="M96.5149 23.9664C90.6309 31.7916 82.8976 37.0561 75.1391 39.245C71.2573 40.3437 67.3755 40.6667 63.7207 40.1586H66.424V12.8536H103.115V11.6624C101.566 16.0813 99.3389 20.2322 96.5149 23.9664Z" fill="#ED037F"/>
<path d="M96.4981 23.9529C90.6242 31.7748 82.8892 37.0359 75.1475 39.2215C71.2691 40.3184 67.3924 40.6415 63.7375 40.1334H66.4274V12.8536H103.092V11.6573C101.546 16.0741 99.3215 20.2225 96.4981 23.9529Z" fill="#ED037F"/>
<path d="M96.4831 23.9412C90.6075 31.7546 82.8809 37.0124 75.1325 39.2013C71.2658 40.2949 67.3807 40.6179 63.7292 40.1098H66.4191V12.8536H103.068V11.654C101.522 16.0663 99.3008 20.2115 96.4831 23.9412Z" fill="#ED037F"/>
<path d="M96.4663 23.9294C90.5991 31.7344 82.8776 36.9922 75.1392 39.176C71.2726 40.2663 67.3925 40.5944 63.7444 40.0846H66.4241V12.8536H103.051V11.6506C101.506 16.0607 99.2847 20.2032 96.4663 23.9294Z" fill="#ED027F"/>
<path d="M96.4494 23.9159C90.5838 31.7176 82.869 36.9669 75.1391 39.1508C71.2725 40.241 67.4058 40.5674 63.7527 40.0593H66.424V12.8536H103.026V11.6506C101.484 16.0564 99.2654 20.1946 96.4494 23.9159Z" fill="#ED027F"/>
<path d="M96.431 23.9058C90.5722 31.7024 82.8624 36.9484 75.1358 39.1289C71.2692 40.2192 67.4025 40.5422 63.7578 40.0358H66.4208V12.8536H103.003V11.6456C101.461 16.0489 99.244 20.1852 96.431 23.9058Z" fill="#ED027F"/>
<path d="M96.4175 23.8924C90.5637 31.6823 82.8573 36.9232 75.1392 39.1037C71.2725 40.1939 67.4059 40.517 63.7695 40.0122H66.4241V12.8536H102.987V11.6422C101.447 16.0426 99.2305 20.1757 96.4175 23.8924Z" fill="#ED027F"/>
<path d="M96.4025 23.8806C90.547 31.6553 82.8541 36.903 75.1393 39.0801C71.2726 40.1704 67.4161 40.4934 63.7764 39.9887H66.4242V12.8536H102.962V11.6422C101.424 16.0379 99.2109 20.1668 96.4025 23.8806Z" fill="#ED017F"/>
</g>
</g>
<defs>
<radialGradient id="paint0_radial_5302_12774" cx="0" cy="0" r="1" gradientUnits="userSpaceOnUse" gradientTransform="translate(65.6961 -6.98116) scale(52.188 52.2293)">
<stop offset="0.94" stop-color="#ED0581"/>
<stop offset="0.95" stop-color="#EE1087"/>
<stop offset="0.96" stop-color="#EF2491"/>
<stop offset="0.97" stop-color="#F462B0"/>
<stop offset="0.98" stop-color="#F78DC6"/>
<stop offset="0.99" stop-color="white"/>
</radialGradient>
<clipPath id="clip0_5302_12774">
<rect width="108.582" height="34.9014" fill="white" transform="translate(5.81689 11.6338)"/>
</clipPath>
</defs>
</svg>
