<svg width="19" height="19" viewBox="0 0 19 19" fill="none" xmlns="http://www.w3.org/2000/svg">
<path d="M13.9875 3.92928C13.7733 3.92928 13.5638 3.99281 13.3857 4.11185C13.2075 4.23089 13.0687 4.40008 12.9867 4.59803C12.9047 4.79599 12.8832 5.01381 12.925 5.22396C12.9668 5.4341 13.07 5.62713 13.2215 5.77864C13.373 5.93015 13.566 6.03333 13.7762 6.07513C13.9863 6.11693 14.2041 6.09547 14.4021 6.01348C14.6001 5.93148 14.7692 5.79263 14.8883 5.61448C15.0073 5.43632 15.0709 5.22687 15.0709 5.01261C15.0709 4.72529 14.9567 4.44974 14.7536 4.24658C14.5504 4.04341 14.2748 3.92928 13.9875 3.92928ZM18.1403 6.114C18.1227 5.36496 17.9825 4.62387 17.725 3.92025C17.4955 3.31821 17.1382 2.77307 16.6778 2.32233C16.2308 1.85959 15.6844 1.50457 15.0799 1.28414C14.3781 1.01886 13.6362 0.875368 12.8861 0.859831C11.9292 0.805664 11.6222 0.805664 9.16669 0.805664C6.71114 0.805664 6.40419 0.805664 5.44725 0.859831C4.69718 0.875368 3.95527 1.01886 3.2535 1.28414C2.65015 1.50681 2.1042 1.86152 1.65558 2.32233C1.19284 2.76937 0.837825 3.31578 0.617388 3.92025C0.352117 4.62202 0.208619 5.36393 0.193083 6.114C0.138916 7.07094 0.138916 7.37789 0.138916 9.83344C0.138916 12.289 0.138916 12.5959 0.193083 13.5529C0.208619 14.303 0.352117 15.0449 0.617388 15.7466C0.837825 16.3511 1.19284 16.8975 1.65558 17.3446C2.1042 17.8054 2.65015 18.1601 3.2535 18.3827C3.95527 18.648 4.69718 18.7915 5.44725 18.8071C6.40419 18.8612 6.71114 18.8612 9.16669 18.8612C11.6222 18.8612 11.9292 18.8612 12.8861 18.8071C13.6362 18.7915 14.3781 18.648 15.0799 18.3827C15.6844 18.1623 16.2308 17.8073 16.6778 17.3446C17.1402 16.8955 17.4978 16.3499 17.725 15.7466C17.9825 15.043 18.1227 14.3019 18.1403 13.5529C18.1403 12.5959 18.1945 12.289 18.1945 9.83344C18.1945 7.37789 18.1945 7.07094 18.1403 6.114ZM16.5153 13.4446C16.5087 14.0176 16.4049 14.5854 16.2084 15.1237C16.0642 15.5166 15.8327 15.8716 15.5313 16.1619C15.2385 16.4603 14.8842 16.6913 14.4931 16.839C13.9548 17.0356 13.387 17.1394 12.8139 17.1459C11.9111 17.1911 11.5771 17.2001 9.2028 17.2001C6.8285 17.2001 6.49447 17.2001 5.59169 17.1459C4.99666 17.1571 4.40418 17.0655 3.8403 16.8751C3.46636 16.7199 3.12833 16.4894 2.84725 16.198C2.54761 15.908 2.31898 15.5527 2.17919 15.1598C1.95879 14.6138 1.83654 14.0331 1.81808 13.4446C1.81808 12.5418 1.76392 12.2077 1.76392 9.83344C1.76392 7.45914 1.76392 7.12511 1.81808 6.22233C1.82213 5.63648 1.92908 5.05589 2.13406 4.50705C2.29299 4.126 2.53693 3.78633 2.84725 3.514C3.12153 3.20359 3.4605 2.95707 3.8403 2.79177C4.39059 2.5932 4.97058 2.48942 5.55558 2.48483C6.45836 2.48483 6.79239 2.43066 9.16669 2.43066C11.541 2.43066 11.875 2.43066 12.7778 2.48483C13.3509 2.4914 13.9186 2.59519 14.457 2.79177C14.8672 2.94403 15.2354 3.19157 15.5313 3.514C15.8271 3.79131 16.0583 4.13035 16.2084 4.50705C16.409 5.05678 16.5129 5.63713 16.5153 6.22233C16.5604 7.12511 16.5695 7.45914 16.5695 9.83344C16.5695 12.2077 16.5604 12.5418 16.5153 13.4446ZM9.16669 5.20219C8.25111 5.20398 7.35659 5.47711 6.59617 5.98708C5.83576 6.49706 5.24356 7.22098 4.89442 8.06739C4.54527 8.91379 4.45485 9.8447 4.63456 10.7425C4.81428 11.6403 5.25607 12.4646 5.90412 13.1114C6.55217 13.7582 7.3774 14.1984 8.27553 14.3764C9.17365 14.5543 10.1044 14.4621 10.9501 14.1113C11.7958 13.7605 12.5186 13.1669 13.0271 12.4055C13.5356 11.6441 13.807 10.749 13.807 9.83344C13.8082 9.22416 13.6889 8.62066 13.456 8.05764C13.2231 7.49462 12.8812 6.9832 12.45 6.55279C12.0187 6.12239 11.5066 5.78148 10.9432 5.5497C10.3797 5.31791 9.77597 5.19981 9.16669 5.20219ZM9.16669 12.8397C8.57211 12.8397 7.99089 12.6634 7.49651 12.333C7.00214 12.0027 6.61682 11.5332 6.38928 10.9839C6.16175 10.4346 6.10221 9.83011 6.21821 9.24695C6.3342 8.6638 6.62052 8.12813 7.04095 7.7077C7.46139 7.28727 7.99705 7.00095 8.5802 6.88496C9.16336 6.76896 9.76782 6.82849 10.3171 7.05603C10.8665 7.28357 11.336 7.66888 11.6663 8.16326C11.9966 8.65763 12.1729 9.23886 12.1729 9.83344C12.1729 10.2282 12.0952 10.6191 11.9441 10.9839C11.793 11.3486 11.5716 11.68 11.2924 11.9592C11.0133 12.2383 10.6819 12.4598 10.3171 12.6109C9.9524 12.7619 9.56148 12.8397 9.16669 12.8397Z" fill="#ED017F"/>
</svg>
