<svg width="19" height="19" viewBox="0 0 19 19" fill="none" xmlns="http://www.w3.org/2000/svg">
<path d="M16.7022 0.80579H1.40911C1.23721 0.803403 1.06651 0.834903 0.906778 0.898491C0.747045 0.962079 0.601402 1.05651 0.478168 1.17639C0.354933 1.29627 0.256521 1.43926 0.188552 1.59717C0.120582 1.75509 0.084386 1.92485 0.0820312 2.09676V17.5704C0.084386 17.7423 0.120582 17.912 0.188552 18.07C0.256521 18.2279 0.354933 18.3709 0.478168 18.4907C0.601402 18.6106 0.747045 18.7051 0.906778 18.7686C1.06651 18.8322 1.23721 18.8637 1.40911 18.8613H16.7022C16.8741 18.8637 17.0448 18.8322 17.2045 18.7686C17.3642 18.7051 17.5099 18.6106 17.6331 18.4907C17.7563 18.3709 17.8548 18.2279 17.9227 18.07C17.9907 17.912 18.0269 17.7423 18.0293 17.5704V2.09676C18.0269 1.92485 17.9907 1.75509 17.9227 1.59717C17.8548 1.43926 17.7563 1.29627 17.6331 1.17639C17.5099 1.05651 17.3642 0.962079 17.2045 0.898491C17.0448 0.834903 16.8741 0.803403 16.7022 0.80579ZM5.52578 15.9183H2.81745V7.79329H5.52578V15.9183ZM4.17161 6.65579C3.7981 6.65579 3.43989 6.50741 3.17577 6.2433C2.91166 5.97918 2.76328 5.62097 2.76328 5.24746C2.76328 4.87394 2.91166 4.51573 3.17577 4.25161C3.43989 3.9875 3.7981 3.83912 4.17161 3.83912C4.36995 3.81663 4.5708 3.83628 4.76102 3.8968C4.95123 3.95731 5.12652 4.05732 5.2754 4.19027C5.42429 4.32322 5.54341 4.48612 5.62497 4.66831C5.70653 4.85049 5.74869 5.04785 5.74869 5.24746C5.74869 5.44706 5.70653 5.64442 5.62497 5.8266C5.54341 6.00879 5.42429 6.17169 5.2754 6.30464C5.12652 6.4376 4.95123 6.5376 4.76102 6.59812C4.5708 6.65863 4.36995 6.67828 4.17161 6.65579ZM15.2938 15.9183H12.5855V11.5579C12.5855 10.4655 12.1973 9.75232 11.2133 9.75232C10.9087 9.75455 10.6122 9.85007 10.3636 10.026C10.115 10.202 9.92636 10.4499 9.823 10.7363C9.75236 10.9485 9.72174 11.172 9.73273 11.3954V15.9093H7.02439C7.02439 15.9093 7.02439 8.52454 7.02439 7.78426H9.73273V8.93079C9.97876 8.50387 10.3366 8.15216 10.7677 7.91354C11.1988 7.67492 11.6868 7.55843 12.1793 7.57662C13.9848 7.57662 15.2938 8.74121 15.2938 11.2419V15.9183Z" fill="#4A71FB"/>
</svg>
