<svg width="29" height="37" viewBox="0 0 29 37" fill="none" xmlns="http://www.w3.org/2000/svg">
<path d="M14.5001 16.3501C15.2088 16.3501 15.9016 16.1399 16.4909 15.7462C17.0801 15.3524 17.5394 14.7928 17.8106 14.138C18.0819 13.4833 18.1528 12.7628 18.0146 12.0677C17.8763 11.3726 17.535 10.7341 17.0339 10.2329C16.5327 9.7318 15.8943 9.39052 15.1992 9.25226C14.5041 9.114 13.7836 9.18496 13.1288 9.45617C12.474 9.72739 11.9144 10.1867 11.5206 10.7759C11.1269 11.3652 10.9167 12.058 10.9167 12.7667C10.9167 13.7171 11.2943 14.6285 11.9663 15.3005C12.6383 15.9725 13.5497 16.3501 14.5001 16.3501ZM13.228 28.7305C13.3946 28.8984 13.5927 29.0317 13.811 29.1227C14.0294 29.2136 14.2636 29.2605 14.5001 29.2605C14.7366 29.2605 14.9708 29.2136 15.1891 29.1227C15.4074 29.0317 15.6056 28.8984 15.7722 28.7305L23.1001 21.3847C24.8021 19.6835 25.9614 17.5159 26.4313 15.1559C26.9012 12.7958 26.6607 10.3494 25.7401 8.12613C24.8195 5.90282 23.2602 4.00246 21.2595 2.66543C19.2588 1.3284 16.9064 0.614746 14.5001 0.614746C12.0937 0.614746 9.74141 1.3284 7.74068 2.66543C5.73995 4.00246 4.18068 5.90282 3.26009 8.12613C2.33951 10.3494 2.09896 12.7958 2.56889 15.1559C3.03881 17.5159 4.19808 19.6835 5.90008 21.3847L13.228 28.7305ZM5.95383 11.9426C6.07625 10.6651 6.4824 9.43118 7.14264 8.33078C7.80289 7.23038 8.70055 6.29132 9.77008 5.58216C11.1751 4.65963 12.8193 4.1681 14.5001 4.1681C16.1809 4.1681 17.825 4.65963 19.2301 5.58216C20.2925 6.28888 21.1851 7.22225 21.8436 8.31514C22.5022 9.40803 22.9104 10.6333 23.0389 11.9028C23.1674 13.1723 23.013 14.4545 22.5868 15.6572C22.1605 16.8598 21.4731 17.9531 20.5738 18.8584L14.5001 24.9322L8.42633 18.8584C7.52606 17.9619 6.83699 16.876 6.40928 15.6796C5.98157 14.4833 5.82598 13.2066 5.95383 11.9426ZM27.0417 32.8334H1.95841C1.48324 32.8334 1.02752 33.0222 0.691515 33.3582C0.355513 33.6942 0.166748 34.1499 0.166748 34.6251C0.166748 35.1003 0.355513 35.556 0.691515 35.892C1.02752 36.228 1.48324 36.4167 1.95841 36.4167H27.0417C27.5169 36.4167 27.9726 36.228 28.3086 35.892C28.6446 35.556 28.8334 35.1003 28.8334 34.6251C28.8334 34.1499 28.6446 33.6942 28.3086 33.3582C27.9726 33.0222 27.5169 32.8334 27.0417 32.8334Z" fill="#F467B2"/>
</svg>
