<svg width="37" height="37" viewBox="0 0 37 37" fill="none" xmlns="http://www.w3.org/2000/svg">
<path d="M31.83 20.2915C31.4358 20.2915 31.0237 20.1661 30.6296 20.0765C29.8314 19.9006 29.0469 19.6671 28.2825 19.3778C27.4513 19.0754 26.5377 19.0911 25.7174 19.4219C24.8971 19.7526 24.2281 20.3751 23.8392 21.1694L23.445 21.9757C21.6999 21.0049 20.0963 19.7992 18.6792 18.3924C17.2723 16.9752 16.0666 15.3716 15.0958 13.6265L15.8483 13.1249C16.6427 12.7359 17.2651 12.0669 17.5959 11.2466C17.9267 10.4264 17.9424 9.51271 17.64 8.68153C17.3555 7.91545 17.1221 7.13138 16.9412 6.33445C16.8517 5.94028 16.78 5.5282 16.7262 5.11612C16.5087 3.8541 15.8477 2.71124 14.8622 1.89334C13.8768 1.07544 12.6317 0.636248 11.3512 0.654865H5.97625C5.2041 0.647615 4.43945 0.806823 3.73435 1.12165C3.02926 1.43648 2.40028 1.89953 1.89023 2.47929C1.38018 3.05905 1.00103 3.7419 0.778601 4.48135C0.556172 5.22081 0.495681 5.99951 0.601247 6.76445C1.55574 14.2704 4.98372 21.2445 10.3437 26.585C15.7037 31.9255 22.6902 35.3281 30.1996 36.2553H30.8804C32.2016 36.2572 33.4772 35.7725 34.4637 34.8936C35.0306 34.3867 35.4834 33.7652 35.7922 33.0703C36.1011 32.3754 36.2589 31.6228 36.2554 30.8624V25.4874C36.2335 24.2428 35.7803 23.0445 34.9732 22.0969C34.1661 21.1493 33.0552 20.5112 31.83 20.2915ZM32.7258 31.0415C32.7255 31.2959 32.671 31.5473 32.566 31.779C32.4609 32.0107 32.3078 32.2174 32.1167 32.3853C31.9171 32.5591 31.683 32.6888 31.4299 32.766C31.1767 32.8432 30.9101 32.8661 30.6475 32.8332C23.9375 31.9729 17.7049 28.9032 12.9328 24.1083C8.16064 19.3135 5.12057 13.0663 4.29208 6.35237C4.26357 6.08992 4.28856 5.82442 4.36554 5.5719C4.44253 5.31938 4.56991 5.0851 4.74 4.8832C4.90789 4.69208 5.11456 4.53891 5.34626 4.43388C5.57795 4.32885 5.82936 4.27435 6.08375 4.27403H11.4587C11.8754 4.26476 12.2822 4.40102 12.6093 4.65937C12.9363 4.91771 13.163 5.28197 13.2504 5.68945C13.3221 6.17917 13.4117 6.66292 13.5192 7.1407C13.7261 8.08517 14.0016 9.01331 14.3433 9.91778L11.835 11.0824C11.6205 11.1808 11.4276 11.3206 11.2673 11.4937C11.107 11.6669 10.9825 11.87 10.9009 12.0914C10.8194 12.3128 10.7823 12.5482 10.792 12.784C10.8016 13.0197 10.8577 13.2513 10.9571 13.4653C13.5356 18.9886 17.9755 23.4284 23.4987 26.007C23.9349 26.1861 24.4242 26.1861 24.8604 26.007C25.0839 25.927 25.2892 25.8035 25.4645 25.6436C25.6398 25.4836 25.7816 25.2905 25.8817 25.0753L26.9925 22.567C27.9187 22.8982 28.864 23.1734 29.8233 23.3911C30.3011 23.4986 30.7849 23.5882 31.2746 23.6599C31.6821 23.7473 32.0463 23.974 32.3047 24.301C32.563 24.628 32.6993 25.0349 32.69 25.4515L32.7258 31.0415Z" fill="#e5027b"/>
</svg>
