<svg width="31" height="25" viewBox="0 0 31 25" fill="none" xmlns="http://www.w3.org/2000/svg">
<path d="M30.0837 3.45268C28.9917 3.93689 27.8333 4.2546 26.6471 4.3952C27.8966 3.64758 28.8317 2.47112 29.278 1.0851C28.1035 1.78271 26.818 2.27382 25.4776 2.53711C24.6564 1.66246 23.5913 1.05476 22.4205 0.792836C21.2497 0.530909 20.0272 0.626843 18.9116 1.06819C17.796 1.50954 16.8388 2.27594 16.1641 3.26798C15.4894 4.26001 15.1283 5.43191 15.1278 6.63164C15.1273 7.09064 15.179 7.54821 15.2819 7.99552C12.9029 7.8763 10.5756 7.25814 8.45093 6.18116C6.32631 5.10418 4.4519 3.59245 2.94938 1.74411C2.1843 3.06135 1.94988 4.62061 2.29384 6.10458C2.63779 7.58855 3.53427 8.8857 4.80083 9.73204C3.85056 9.70261 2.92114 9.44612 2.09028 8.98402V9.05963C2.09046 10.4411 2.56847 11.78 3.44324 12.8493C4.31801 13.9185 5.53568 14.6523 6.88976 14.9261C6.37602 15.0662 5.8458 15.1368 5.3133 15.1359C4.9354 15.1359 4.55832 15.1006 4.18697 15.0305C4.56936 16.2191 5.31356 17.2585 6.31555 18.0035C7.31754 18.7484 8.52725 19.1616 9.77559 19.1855C7.26651 21.1502 4.08122 22.0407 0.916992 21.6623C3.65256 23.4209 6.8367 24.3546 10.0888 24.3518C12.3287 24.3672 14.5493 23.9373 16.6217 23.0873C18.694 22.2372 20.5768 20.9838 22.1607 19.3999C23.7446 17.8161 24.998 15.9333 25.848 13.8609C26.6981 11.7885 27.1279 9.56791 27.1125 7.32802C27.1125 7.06844 27.1064 6.81047 27.0943 6.5541C28.2669 5.70592 29.2792 4.65573 30.0837 3.45268Z" fill="white"/>
</svg>
