<svg width="31" height="31" viewBox="0 0 31 31" fill="none" xmlns="http://www.w3.org/2000/svg">
<path d="M23.2878 5.96246C22.9417 5.96246 22.6034 6.0651 22.3156 6.25739C22.0278 6.44968 21.8035 6.72299 21.671 7.04276C21.5386 7.36253 21.5039 7.7144 21.5715 8.05387C21.639 8.39333 21.8056 8.70516 22.0504 8.9499C22.2951 9.19464 22.607 9.36131 22.9464 9.42883C23.2859 9.49636 23.6378 9.4617 23.9575 9.32925C24.2773 9.1968 24.5506 8.97249 24.7429 8.68471C24.9352 8.39692 25.0378 8.05858 25.0378 7.71246C25.0378 7.24833 24.8535 6.80321 24.5253 6.47502C24.1971 6.14683 23.752 5.96246 23.2878 5.96246ZM29.9962 9.49163C29.9678 8.28165 29.7412 7.08451 29.3253 5.94788C28.9545 4.97536 28.3774 4.09474 27.6337 3.36663C26.9115 2.61912 26.0289 2.04563 25.0524 1.68954C23.9188 1.26103 22.7203 1.02922 21.5087 1.00413C19.9628 0.916626 19.467 0.916626 15.5003 0.916626C11.5337 0.916626 11.0378 0.916626 9.49199 1.00413C8.28034 1.02922 7.08187 1.26103 5.94824 1.68954C4.9736 2.04924 4.09169 2.62224 3.36699 3.36663C2.61949 4.08876 2.046 4.97143 1.68991 5.94788C1.26139 7.0815 1.02959 8.27997 1.00449 9.49163C0.916992 11.0375 0.916992 11.5333 0.916992 15.5C0.916992 19.4666 0.916992 19.9625 1.00449 21.5083C1.02959 22.7199 1.26139 23.9184 1.68991 25.052C2.046 26.0285 2.61949 26.9112 3.36699 27.6333C4.09169 28.3777 4.9736 28.9507 5.94824 29.3104C7.08187 29.7389 8.28034 29.9707 9.49199 29.9958C11.0378 30.0833 11.5337 30.0833 15.5003 30.0833C19.467 30.0833 19.9628 30.0833 21.5087 29.9958C22.7203 29.9707 23.9188 29.7389 25.0524 29.3104C26.0289 28.9543 26.9115 28.3808 27.6337 27.6333C28.3807 26.9079 28.9583 26.0265 29.3253 25.052C29.7412 23.9154 29.9678 22.7183 29.9962 21.5083C29.9962 19.9625 30.0837 19.4666 30.0837 15.5C30.0837 11.5333 30.0837 11.0375 29.9962 9.49163ZM27.3712 21.3333C27.3605 22.259 27.1929 23.1762 26.8753 24.0458C26.6425 24.6805 26.2685 25.2539 25.7816 25.7229C25.3086 26.2049 24.7363 26.5781 24.1045 26.8166C23.2349 27.1342 22.3177 27.3018 21.392 27.3125C19.9337 27.3854 19.3941 27.4 15.5587 27.4C11.7232 27.4 11.1837 27.4 9.72533 27.3125C8.76413 27.3305 7.80703 27.1825 6.89616 26.875C6.29209 26.6242 5.74605 26.2519 5.29199 25.7812C4.80796 25.3127 4.43864 24.7388 4.21283 24.1041C3.85678 23.2221 3.65931 22.284 3.62949 21.3333C3.62949 19.875 3.54199 19.3354 3.54199 15.5C3.54199 11.6645 3.54199 11.125 3.62949 9.66663C3.63603 8.72025 3.80879 7.78238 4.13991 6.89579C4.39664 6.28025 4.79071 5.73154 5.29199 5.29163C5.73505 4.79021 6.28262 4.39197 6.89616 4.12496C7.78509 3.80419 8.72199 3.63653 9.66699 3.62913C11.1253 3.62913 11.6649 3.54163 15.5003 3.54163C19.3357 3.54163 19.8753 3.54163 21.3337 3.62913C22.2594 3.63974 23.1766 3.8074 24.0462 4.12496C24.7089 4.37091 25.3037 4.77078 25.7816 5.29163C26.2595 5.73959 26.6329 6.28728 26.8753 6.89579C27.1994 7.78382 27.3672 8.72131 27.3712 9.66663C27.4441 11.125 27.4587 11.6645 27.4587 15.5C27.4587 19.3354 27.4441 19.875 27.3712 21.3333ZM15.5003 8.01871C14.0213 8.02159 12.5763 8.46281 11.3479 9.28661C10.1196 10.1104 9.16296 11.2798 8.59896 12.6471C8.03496 14.0144 7.88888 15.5181 8.17919 16.9684C8.4695 18.4187 9.18317 19.7503 10.23 20.7951C11.2769 21.84 12.6099 22.551 14.0607 22.8385C15.5116 23.126 17.015 22.977 18.3812 22.4103C19.7474 21.8437 20.9149 20.8848 21.7363 19.6548C22.5578 18.4248 22.9962 16.979 22.9962 15.5C22.9981 14.5157 22.8054 13.5408 22.4292 12.6314C22.053 11.7219 21.5007 10.8957 20.8041 10.2005C20.1075 9.50518 19.2803 8.95449 18.37 8.58007C17.4598 8.20564 16.4845 8.01486 15.5003 8.01871ZM15.5003 20.3562C14.5399 20.3562 13.6009 20.0714 12.8023 19.5378C12.0037 19.0042 11.3813 18.2457 11.0137 17.3584C10.6462 16.471 10.55 15.4946 10.7374 14.5526C10.9248 13.6105 11.3873 12.7452 12.0664 12.0661C12.7456 11.3869 13.6109 10.9244 14.5529 10.737C15.4949 10.5496 16.4714 10.6458 17.3587 11.0134C18.2461 11.3809 19.0045 12.0034 19.5382 12.802C20.0718 13.6006 20.3566 14.5395 20.3566 15.5C20.3566 16.1377 20.231 16.7692 19.9869 17.3584C19.7429 17.9476 19.3852 18.4829 18.9342 18.9338C18.4833 19.3848 17.9479 19.7425 17.3587 19.9866C16.7695 20.2306 16.1381 20.3562 15.5003 20.3562Z" fill="white"/>
</svg>
