<svg width="20" height="15" viewBox="0 0 20 15" fill="none" xmlns="http://www.w3.org/2000/svg">
<path d="M19.8749 5.7659C19.9196 4.47371 19.637 3.19119 19.0534 2.03742C18.6574 1.56401 18.1079 1.24452 17.5006 1.13465C14.9887 0.906718 12.4663 0.813298 9.94437 0.854786C7.43162 0.811415 4.91835 0.901821 2.41521 1.12562C1.92032 1.21564 1.46234 1.44777 1.09715 1.79367C0.284652 2.54298 0.194374 3.82492 0.104096 4.90826C-0.0268862 6.85606 -0.0268862 8.81046 0.104096 10.7583C0.130213 11.368 0.221 11.9732 0.374929 12.5638C0.483782 13.0198 0.704012 13.4416 1.0159 13.7916C1.38357 14.1558 1.85222 14.4012 2.36104 14.4958C4.30735 14.736 6.26846 14.8356 8.2291 14.7937C11.3888 14.8388 14.1603 14.7937 17.4374 14.5409C17.9587 14.4521 18.4406 14.2065 18.8187 13.8367C19.0714 13.5839 19.2602 13.2744 19.3694 12.934C19.6922 11.9433 19.8508 10.9064 19.8388 9.86451C19.8749 9.35895 19.8749 6.30756 19.8749 5.7659ZM7.9041 10.4062V4.81798L13.2485 7.62562C11.7499 8.45617 9.77285 9.39506 7.9041 10.4062Z" fill="#FF0000"/>
</svg>
